<svg xmlns="http://www.w3.org/2000/svg" width="1366" height="644" viewBox="0 0 1366 644" fill="none"><g clip-path="url(#clip0_793_414)"><g opacity="0.5"><g opacity="0.5"><path d="M620.804 681.98C612.187 664.778 602.625 648.027 592.631 631.537C582.637 615.048 572.131 598.821 561.035 582.969C538.922 551.226 514.683 520.834 487.888 492.614C481.199 485.531 474.313 478.673 467.27 471.89C463.728 468.517 460.187 465.182 456.567 461.884C452.947 458.624 449.288 455.363 445.589 452.178C430.755 439.436 415.134 427.519 398.647 416.726C394.516 414.027 390.345 411.442 386.095 408.893C381.846 406.382 377.557 403.909 373.229 401.585C368.861 399.262 364.494 396.976 360.008 394.84C355.562 392.704 351.076 390.605 346.472 388.656C328.254 380.899 309.171 374.79 289.615 370.968C284.736 370.031 279.818 369.206 274.86 368.532C269.902 367.895 264.944 367.295 259.986 366.958L258.137 366.808L256.288 366.695L252.55 366.471C250.071 366.396 247.552 366.246 245.074 366.246C240.076 366.133 235.079 366.246 230.121 366.396C220.127 366.77 210.172 367.52 200.296 368.757L196.597 369.244C195.378 369.394 194.118 369.619 192.899 369.806C190.42 370.143 187.98 370.593 185.541 371.005C180.662 371.905 175.782 372.916 170.943 374.078C166.103 375.277 161.342 376.552 156.581 378.013C151.859 379.475 147.177 381.086 142.534 382.885C133.326 386.483 124.355 390.642 115.856 395.589C107.357 400.499 99.291 406.083 91.775 412.304C84.2993 418.525 77.3348 425.345 71.0785 432.69C58.4873 447.381 48.493 463.983 40.9776 481.521C33.3835 499.06 28.1503 517.498 24.727 536.199C21.3038 554.937 19.6118 573.937 19.3364 592.975C19.2577 597.734 19.297 602.493 19.4151 607.253C19.5331 612.012 19.7299 616.772 20.0053 621.531C20.2807 626.291 20.6742 631.013 21.1464 635.772C21.6579 640.494 22.1694 645.253 22.9564 649.938L22.7596 649.975C21.894 645.291 21.2251 640.569 20.6742 635.809C20.1233 631.088 19.6512 626.328 19.297 621.569C18.9429 616.809 18.6675 612.05 18.4708 607.29C18.274 602.531 18.1953 597.771 18.1953 592.975C18.2347 573.899 19.6905 554.787 22.9957 535.936C26.3009 517.086 31.4555 498.498 38.9708 480.734C46.5256 463.008 56.5199 446.144 69.3079 431.304C75.6822 423.884 82.686 416.951 90.319 410.692C97.953 404.434 106.137 398.812 114.754 393.865C123.371 388.919 132.461 384.721 141.786 381.124C146.469 379.362 151.19 377.751 155.991 376.289C160.791 374.828 165.631 373.553 170.51 372.392C190.026 367.82 210.094 365.646 230.121 365.121C235.119 365.009 240.155 364.934 245.152 365.084C247.671 365.121 250.149 365.271 252.668 365.384L256.406 365.609L258.294 365.721L260.183 365.871C265.18 366.246 270.138 366.883 275.096 367.557C280.054 368.269 284.972 369.131 289.891 370.106C309.486 374.041 328.609 380.187 346.866 388.019C355.995 391.917 364.926 396.264 373.662 400.948C378.029 403.272 382.318 405.708 386.607 408.219C390.856 410.73 395.067 413.315 399.238 415.976C415.882 426.619 431.66 438.424 446.651 451.053C450.429 454.201 454.088 457.424 457.747 460.685C461.407 463.945 464.987 467.281 468.568 470.616C475.69 477.324 482.615 484.22 489.344 491.265C496.072 498.311 502.643 505.543 509.057 512.851C512.244 516.524 515.431 520.234 518.539 523.944C521.648 527.692 524.756 531.439 527.786 535.224C539.945 550.365 551.473 565.992 562.451 581.957C573.39 597.921 583.778 614.223 593.615 630.863C598.533 639.145 603.255 647.577 607.859 656.046C612.462 664.516 616.908 673.06 621.001 681.755L620.804 681.98Z" fill="#D6D6D6"></path></g><g opacity="0.5556"><path d="M600.538 682.919C591.488 666.654 581.494 650.915 571.106 635.4C560.718 619.922 549.74 604.782 538.29 589.979C532.585 582.559 526.683 575.288 520.702 568.093C514.721 560.898 508.583 553.777 502.327 546.807C489.775 532.866 476.711 519.337 462.979 506.408L460.421 503.972L457.824 501.573C456.093 499.999 454.362 498.35 452.631 496.776L447.358 492.054L446.02 490.893L444.682 489.731L442.007 487.407C438.465 484.297 434.767 481.336 431.147 478.301L425.599 473.879L422.805 471.668L419.972 469.531C412.496 463.723 404.745 458.251 396.875 452.892L390.934 448.957C388.927 447.646 386.92 446.409 384.913 445.135L381.884 443.223C380.861 442.586 379.838 441.987 378.814 441.387L372.676 437.752L366.42 434.267C365.358 433.705 364.335 433.105 363.272 432.543L360.085 430.894L356.898 429.245C355.835 428.683 354.773 428.121 353.711 427.633L347.258 424.486L345.644 423.699L343.992 422.949L340.726 421.487C338.523 420.513 336.398 419.501 334.155 418.602L327.505 415.829C325.302 414.929 323.02 414.105 320.777 413.243L317.432 411.969C316.291 411.556 315.15 411.182 314.048 410.807L307.241 408.483L300.355 406.385C299.214 406.047 298.073 405.673 296.893 405.373L293.43 404.436C284.184 401.85 274.74 399.864 265.257 398.215L258.135 397.091C256.955 396.866 255.735 396.753 254.555 396.603L250.974 396.191C246.213 395.554 241.373 395.254 236.612 394.842C236.022 394.767 235.392 394.767 234.802 394.73L232.992 394.655L229.372 394.505L225.752 394.355C225.162 394.317 224.533 394.317 223.942 394.317H222.132L214.892 394.28C212.492 394.317 210.092 394.392 207.652 394.467C198.012 394.692 188.411 395.479 178.85 396.454L171.689 397.39L168.108 397.84L164.567 398.44C162.206 398.852 159.806 399.189 157.445 399.602L150.402 401.026C141.037 403.049 131.712 405.41 122.662 408.483L120.97 409.045C120.419 409.233 119.829 409.42 119.278 409.608L115.933 410.844C113.69 411.669 111.447 412.456 109.244 413.43C107.041 414.367 104.837 415.229 102.634 416.203L96.181 419.201C87.642 423.399 79.4185 428.121 71.5884 433.405C63.7582 438.689 56.3608 444.573 49.5144 450.943C42.6285 457.314 36.2936 464.21 30.5095 471.518C24.7254 478.825 19.4921 486.508 14.8098 494.49C10.1274 502.473 5.9959 510.755 2.3759 519.262C-1.2441 527.769 -4.31317 536.463 -6.94946 545.27C-9.5464 554.114 -11.7499 563.034 -13.5205 572.065C-15.2912 581.097 -16.5896 590.204 -17.534 599.348C-18.439 608.492 -19.0292 617.673 -19.1866 626.855C-19.2653 631.465 -19.2653 636.037 -19.1079 640.646C-18.9505 645.256 -18.7537 649.828 -18.3209 654.4L-18.5176 654.437C-19.5407 645.293 -19.8555 636.074 -19.8555 626.855C-19.8161 617.636 -19.4226 608.454 -18.5963 599.273C-17.7307 590.091 -16.5503 580.947 -14.8583 571.878C-13.2057 562.809 -11.1203 553.777 -8.52336 544.895C-5.96577 536.014 -2.8967 527.244 0.684002 518.625C4.2646 510.043 8.3961 501.648 13.0785 493.553C22.4039 477.364 34.1294 462.336 48.0191 449.369C61.9089 436.44 78.002 425.647 95.315 417.253L101.886 414.217C104.089 413.243 106.332 412.381 108.575 411.444C110.779 410.47 113.061 409.72 115.343 408.858L118.727 407.621C119.278 407.397 119.868 407.209 120.458 407.059L122.189 406.497C131.357 403.424 140.761 401.063 150.205 399.077L157.327 397.653C159.727 397.241 162.088 396.866 164.488 396.491L168.069 395.929L171.689 395.479L178.889 394.58C188.529 393.68 198.17 392.931 207.888 392.781C217.568 392.406 227.247 392.781 236.927 393.381C241.727 393.83 246.567 394.168 251.368 394.88L254.948 395.329C256.129 395.479 257.348 395.629 258.529 395.854L265.69 397.053C275.173 398.815 284.656 400.876 293.902 403.537L297.365 404.511C298.545 404.811 299.647 405.223 300.828 405.56L307.713 407.734L314.52 410.095C315.662 410.507 316.803 410.882 317.904 411.294L321.249 412.568C323.492 413.43 325.735 414.255 327.977 415.154L334.627 417.927C336.87 418.827 339.034 419.876 341.198 420.85L344.464 422.349L346.117 423.099L347.73 423.886L354.183 427.034C355.285 427.559 356.308 428.121 357.37 428.645L360.557 430.294L363.744 431.943C364.807 432.505 365.83 433.105 366.892 433.667L373.148 437.152C389.714 446.671 405.65 457.164 420.838 468.557L423.71 470.693L426.504 472.867L432.13 477.251C435.79 480.25 439.528 483.173 443.108 486.246L445.823 488.532L447.201 489.693L448.538 490.855L453.89 495.502C455.66 497.076 457.392 498.65 459.162 500.224L461.799 502.585L464.396 505.021C471.321 511.429 478.049 518.063 484.66 524.808C491.27 531.554 497.644 538.45 503.94 545.458C516.492 559.473 528.453 573.977 539.825 588.855C551.196 603.732 561.978 619.023 572.247 634.65C577.402 642.445 582.32 650.352 587.121 658.335C591.921 666.317 596.564 674.374 600.892 682.619L600.538 682.919Z" fill="#FCFCFC"></path></g><g opacity="0.6111"><path d="M580.233 683.889C570.711 668.561 560.244 653.833 549.384 639.368C538.524 624.902 527.074 610.849 515.152 597.132C491.346 569.738 465.456 543.954 437.401 520.532C430.397 514.648 423.236 508.989 415.956 503.405L410.448 499.283L409.071 498.271L407.654 497.259L404.86 495.236C401.162 492.537 397.345 489.951 393.568 487.366C391.679 486.091 389.751 484.817 387.823 483.581L384.951 481.669L382.039 479.833C380.071 478.596 378.143 477.36 376.176 476.16L370.234 472.6C368.267 471.401 366.26 470.277 364.254 469.152L361.263 467.428C360.28 466.866 359.257 466.304 358.233 465.742L352.135 462.482L350.6 461.657L349.065 460.87L345.957 459.296C329.47 450.939 312.275 443.856 294.648 438.047L287.998 435.986C286.896 435.649 285.795 435.274 284.653 434.974L281.309 434.037L277.964 433.101C276.823 432.801 275.722 432.463 274.58 432.201L267.813 430.552C265.57 429.99 263.288 429.503 261.006 429.053L257.582 428.341C256.441 428.116 255.3 427.854 254.159 427.667C249.555 426.88 244.991 425.98 240.387 425.38C231.18 423.956 221.894 423.207 212.569 422.607L205.565 422.345C204.384 422.307 203.243 422.233 202.063 422.233H198.561L191.557 422.195L184.553 422.382C179.871 422.457 175.228 422.795 170.585 423.019C168.263 423.132 165.942 423.357 163.62 423.544L156.656 424.144L149.73 424.968L146.268 425.38C145.127 425.53 143.986 425.718 142.805 425.868L135.919 426.88C133.637 427.254 131.355 427.704 129.073 428.116L125.65 428.753C124.509 428.978 123.368 429.24 122.227 429.465L115.419 430.964C110.934 432.126 106.409 433.175 101.962 434.525L98.618 435.499C98.067 435.649 97.516 435.799 96.965 435.986L95.313 436.511L88.702 438.684C84.3741 440.296 80.0065 441.832 75.757 443.631L72.5698 444.943C72.019 445.168 71.5074 445.393 70.9959 445.655L69.422 446.367L66.2742 447.791C65.2118 448.278 64.1494 448.728 63.1657 449.253L56.9882 452.326C54.9814 453.412 52.9747 454.537 50.9286 455.623C42.9411 460.158 35.2683 465.18 27.989 470.651C20.7097 476.123 13.7845 482.081 7.33152 488.452C0.87852 494.823 -5.10234 501.644 -10.5717 508.764C-21.589 523.043 -30.5996 538.707 -37.7215 555.084C-41.2628 563.292 -44.45 571.649 -47.1256 580.156C-47.7552 582.292 -48.4634 584.391 -49.0536 586.564L-49.9586 589.787L-50.8243 593.01C-51.4145 595.146 -51.8867 597.32 -52.4375 599.493L-53.1851 602.754C-53.4212 603.841 -53.6573 604.927 -53.8934 606.014C-55.7034 614.709 -57.1593 623.515 -58.1429 632.36C-58.6545 636.782 -59.0479 641.204 -59.284 645.664C-59.5595 650.086 -59.7168 654.545 -59.6381 659.005H-59.8349C-60.1497 650.086 -59.6381 641.166 -58.8118 632.322C-57.9462 623.44 -56.6477 614.596 -54.9164 605.864C-51.4538 588.363 -46.3387 571.087 -39.2561 554.56C-32.1735 538.033 -23.2023 522.181 -12.2243 507.677C-1.24628 493.174 11.8565 480.095 26.5725 468.965C41.3278 457.872 57.6177 448.653 74.8913 441.645C79.1802 439.809 83.5871 438.272 87.994 436.698L94.644 434.525L96.296 434C96.847 433.813 97.438 433.663 97.988 433.513L101.372 432.538C105.858 431.189 110.422 430.14 114.947 429.016L121.794 427.554C122.935 427.329 124.076 427.067 125.217 426.842L128.68 426.242C131.001 425.83 133.283 425.418 135.605 425.043L142.569 424.031C143.71 423.881 144.891 423.694 146.032 423.544L149.534 423.169L156.498 422.382L163.502 421.82C165.824 421.633 168.185 421.408 170.506 421.333C175.188 421.108 179.871 420.808 184.553 420.771L191.557 420.621L198.6 420.696L202.102 420.733C203.283 420.733 204.424 420.846 205.604 420.883L212.608 421.221C221.933 421.895 231.259 422.795 240.505 424.294C258.999 427.029 277.138 431.714 294.844 437.448C297.048 438.197 299.251 438.984 301.455 439.734L304.76 440.895L308.026 442.132L314.558 444.606L321.011 447.266C322.073 447.716 323.175 448.128 324.237 448.616L327.424 450.002C329.549 450.939 331.674 451.838 333.799 452.813C337.969 454.799 342.219 456.71 346.311 458.846L349.42 460.383L350.954 461.17L352.489 461.994L358.627 465.217C359.65 465.742 360.673 466.304 361.657 466.866L364.686 468.553C366.693 469.677 368.739 470.801 370.707 471.963L376.688 475.448C378.655 476.647 380.622 477.847 382.59 479.046L385.541 480.845L388.452 482.719C390.38 483.955 392.348 485.192 394.276 486.466C398.093 489.052 401.949 491.563 405.687 494.261L408.52 496.247L409.936 497.222L411.313 498.234L416.901 502.281C418.75 503.63 420.56 505.054 422.409 506.441L425.164 508.539L427.879 510.676L433.269 514.948L438.621 519.295C452.786 530.95 466.321 543.28 479.267 556.171C485.72 562.617 492.094 569.175 498.311 575.846C504.489 582.517 510.548 589.337 516.49 596.233C528.333 610.024 539.626 624.265 550.328 638.843C555.68 646.151 560.913 653.534 565.949 661.029C570.986 668.524 575.904 676.094 580.469 683.889H580.233Z" fill="#F3F3F3"></path></g><g opacity="0.6667"><path d="M559.968 684.868C549.895 670.515 538.878 656.798 527.467 643.382C516.056 629.966 504.095 617.036 491.661 604.445C485.483 598.149 479.109 592.003 472.656 585.969C466.203 579.935 459.671 573.977 452.943 568.168C451.29 566.706 449.559 565.282 447.906 563.858L445.388 561.722L442.791 559.549C441.099 558.124 439.368 556.7 437.676 555.314L432.482 551.154C425.517 545.645 418.513 540.211 411.313 534.964C396.951 524.471 382.078 514.578 366.653 505.546C362.837 503.26 358.902 501.086 355.006 498.875L349.104 495.69L346.153 494.116L343.163 492.579C341.156 491.567 339.189 490.555 337.182 489.544L331.122 486.621C329.116 485.646 327.07 484.709 325.024 483.772C322.977 482.873 320.931 481.899 318.885 481.037C314.754 479.275 310.622 477.476 306.412 475.865L303.264 474.628C302.202 474.216 301.179 473.804 300.117 473.429L293.782 471.106L292.208 470.543L290.594 470.019L287.407 468.932L284.22 467.845L282.607 467.32L280.994 466.833L274.541 464.847L272.927 464.36L271.314 463.91L268.048 463.011L264.782 462.111L263.169 461.662L261.517 461.249L254.945 459.6L253.293 459.188L251.64 458.813L248.335 458.101L245.03 457.389L243.377 457.015C242.826 456.902 242.276 456.79 241.725 456.715C237.278 455.89 232.832 454.991 228.386 454.354L225.041 453.829C223.94 453.642 222.798 453.454 221.697 453.342L214.968 452.48C213.827 452.33 212.725 452.18 211.584 452.068L208.201 451.73C205.958 451.506 203.715 451.281 201.433 451.093L194.665 450.644L191.281 450.419L187.897 450.306L181.129 450.082C178.887 450.044 176.604 450.044 174.362 450.044C169.837 449.969 165.312 450.156 160.787 450.231C159.646 450.269 158.544 450.269 157.403 450.306L154.019 450.494L147.251 450.831C146.11 450.869 145.008 450.981 143.867 451.056L140.483 451.318L137.099 451.581C135.958 451.656 134.857 451.731 133.715 451.88L126.987 452.592C125.846 452.705 124.744 452.817 123.603 452.967L120.259 453.417L113.373 454.241L106.684 455.328L103.339 455.89C102.237 456.078 101.136 456.303 100.034 456.527L93.384 457.802L86.7738 459.263L83.4686 460.013L80.2027 460.837C71.4676 462.973 62.8504 465.672 54.3907 468.632C52.2659 469.419 50.1805 470.131 48.0558 470.956L41.7995 473.429C41.2879 473.654 40.7371 473.841 40.2256 474.066L38.691 474.741L35.6219 476.09C34.5988 476.54 33.5758 476.989 32.5528 477.439L29.523 478.863C21.4567 482.686 13.5479 486.92 6.03251 491.605C-1.52219 496.289 -8.80155 501.386 -15.7661 506.895C-22.6912 512.404 -29.2623 518.288 -35.4792 524.546C-47.8737 537.063 -58.655 551.004 -67.6656 565.919C-68.8067 567.756 -69.869 569.667 -70.9708 571.541C-71.5216 572.478 -72.0332 573.452 -72.5447 574.389L-74.1186 577.237C-75.1023 579.186 -76.1253 581.097 -77.109 583.046C-78.0533 584.995 -79.037 586.943 -79.942 588.93L-81.3192 591.89L-82.6177 594.888C-83.5227 596.874 -84.3096 598.898 -85.1359 600.884C-86.7098 604.932 -88.2837 608.979 -89.6609 613.064C-92.4546 621.271 -94.8548 629.591 -96.7828 638.023C-97.7665 642.22 -98.5928 646.455 -99.3011 650.727C-100.009 655 -100.639 659.272 -100.954 663.581H-101.15C-100.914 659.272 -100.363 654.962 -99.7339 650.69C-99.1043 646.418 -98.3174 642.145 -97.4124 637.911C-95.6024 629.441 -93.3596 621.046 -90.6446 612.802C-89.3068 608.679 -87.8116 604.594 -86.2376 600.51C-85.4113 598.486 -84.6637 596.462 -83.7981 594.439L-82.539 591.44L-81.2012 588.442C-80.3355 586.456 -79.3518 584.47 -78.4468 582.521C-77.5025 580.535 -76.4794 578.624 -75.4958 576.638C-74.4727 574.726 -73.4497 572.778 -72.3873 570.866C-71.2856 568.955 -70.2625 567.044 -69.0821 565.17C-60.1108 550.105 -49.3689 535.939 -36.9351 523.234C-24.5406 510.53 -10.4148 499.325 4.81271 489.843C12.4462 485.084 20.3944 480.849 28.5393 476.989C36.7236 473.167 45.0653 469.644 53.6431 466.721C62.1815 463.76 70.8774 461.1 79.6912 458.963L82.9964 458.139L86.3016 457.389L92.951 455.928L99.64 454.654C100.742 454.429 101.883 454.204 102.985 454.017L106.369 453.492L113.058 452.368L119.826 451.506L123.21 451.056C124.351 450.906 125.452 450.831 126.594 450.719L133.361 450.044C134.502 449.932 135.644 449.857 136.745 449.782L140.129 449.557L143.513 449.332C144.654 449.257 145.795 449.145 146.897 449.107L153.704 448.807L157.088 448.658C158.229 448.62 159.37 448.62 160.511 448.582C165.036 448.508 169.6 448.358 174.125 448.47C176.408 448.508 178.69 448.508 180.933 448.582L187.74 448.882L191.124 449.032L194.508 449.295L201.315 449.819C203.557 450.044 205.84 450.306 208.082 450.531L211.466 450.906C212.607 451.018 213.709 451.206 214.85 451.356L221.579 452.293C222.72 452.443 223.822 452.63 224.923 452.817L228.268 453.38C232.753 454.054 237.2 454.991 241.646 455.89C250.499 457.802 259.313 459.863 268.009 462.374C285.44 467.246 302.399 473.467 318.964 480.549C327.227 484.147 335.411 487.857 343.399 491.942L346.429 493.441L349.419 495.015L355.4 498.126C359.335 500.299 363.309 502.398 367.165 504.684C374.956 509.106 382.589 513.828 390.105 518.625L395.731 522.298L401.279 526.045C402.184 526.682 403.129 527.282 404.034 527.919L406.788 529.83C408.598 531.104 410.447 532.379 412.257 533.69L417.687 537.625C419.497 538.937 421.268 540.286 423.038 541.635L425.714 543.659L428.35 545.72C430.121 547.107 431.892 548.456 433.623 549.842C440.587 555.389 447.434 561.085 454.123 566.931C467.541 578.586 480.407 590.803 492.762 603.47C505.118 616.137 516.922 629.291 528.215 642.82C533.881 649.566 539.35 656.461 544.662 663.469C549.974 670.477 555.168 677.56 560.008 684.868H559.968Z" fill="#D5D5D5"></path></g><g opacity="0.7222"><path d="M539.665 685.844C528.923 672.502 517.276 659.835 505.275 647.543C493.235 635.251 480.683 623.446 467.737 612.054C441.768 589.268 414.028 568.394 384.557 549.881C380.897 547.558 377.159 545.309 373.461 543.061C369.683 540.849 365.985 538.601 362.168 536.502C354.613 532.193 346.901 528.108 339.11 524.173L333.247 521.25L327.345 518.439L324.394 517.052L321.404 515.703L315.423 513.005L309.363 510.419C308.34 510.007 307.357 509.557 306.334 509.145L303.304 507.908C301.258 507.084 299.251 506.259 297.205 505.472L291.067 503.149C290.044 502.774 289.021 502.362 287.998 502.024L284.889 500.938C282.804 500.226 280.758 499.476 278.672 498.764C274.501 497.415 270.331 495.991 266.12 494.792C263.996 494.155 261.91 493.517 259.785 492.918L253.411 491.194C252.349 490.894 251.286 490.594 250.224 490.332L247.037 489.545L240.623 487.971L234.17 486.547L230.944 485.835L227.717 485.198L221.225 483.961C219.061 483.586 216.897 483.249 214.693 482.874C210.365 482.087 205.997 481.563 201.63 480.926C200.528 480.776 199.426 480.626 198.364 480.513L195.098 480.139L191.832 479.764L190.18 479.576C189.629 479.502 189.078 479.464 188.527 479.427L181.956 478.864C180.854 478.789 179.752 478.64 178.651 478.602L175.345 478.415L168.735 478.04L162.125 477.853C157.718 477.665 153.311 477.74 148.904 477.703H147.251L145.599 477.74L142.293 477.815L135.683 477.965C133.48 478.04 131.276 478.152 129.073 478.265L125.767 478.415C124.666 478.452 123.564 478.49 122.462 478.602L115.852 479.052L112.547 479.277L109.241 479.576L102.67 480.176C101.569 480.251 100.467 480.401 99.4052 480.551L96.1392 480.926L92.8732 481.3C91.7712 481.413 90.6692 481.563 89.6072 481.713L83.0755 482.649C80.9114 482.949 78.7473 483.324 76.5832 483.699C74.4191 484.074 72.2549 484.411 70.0908 484.823L63.6378 486.097C62.5754 486.322 61.4737 486.509 60.4113 486.734L57.1848 487.446C48.607 489.32 40.1473 491.606 31.7269 494.155C15.0042 499.289 -1.36439 505.697 -16.828 513.642C-47.8733 529.382 -75.456 551.305 -97.0185 577.838C-102.409 584.471 -107.406 591.367 -112.049 598.487C-116.692 605.608 -120.903 612.99 -124.759 620.523C-128.575 628.093 -132.038 635.813 -134.989 643.721C-136.484 647.693 -137.822 651.666 -139.081 655.713C-140.301 659.76 -141.442 663.808 -142.229 667.93L-142.426 667.893C-141.678 663.733 -140.655 659.648 -139.514 655.563C-138.373 651.516 -137.035 647.468 -135.619 643.496C-134.202 639.523 -132.668 635.551 -131.015 631.653C-129.362 627.756 -127.592 623.896 -125.703 620.073C-118.188 604.821 -109.019 590.28 -98.2776 576.826C-87.5357 563.41 -75.2592 551.08 -61.763 540.137C-54.9952 534.666 -47.952 529.569 -40.594 524.81C-33.2753 520.05 -25.6419 515.703 -17.8511 511.693L-14.9393 510.194C-13.9556 509.707 -12.972 509.257 -11.9883 508.77L-8.99785 507.346C-8.01416 506.859 -7.03048 506.409 -6.00743 505.959L0.0127106 503.299L6.11162 500.788C8.11832 499.926 10.2038 499.176 12.2892 498.427L15.3976 497.265C16.4207 496.853 17.4831 496.553 18.5061 496.178C20.5915 495.466 22.677 494.754 24.7624 494.042L31.0974 492.093C39.5571 489.583 48.0955 487.296 56.752 485.46L59.9785 484.748C61.0409 484.523 62.1426 484.336 63.2444 484.111L69.7367 482.837C71.9008 482.425 74.1043 482.087 76.2684 481.75C78.4325 481.375 80.636 481.001 82.8394 480.738C100.349 478.19 118.016 476.766 135.683 476.279C153.35 475.791 171.096 476.466 188.684 478.265C206.273 480.064 223.664 483.212 240.859 487.184L247.273 488.796L250.46 489.582C251.522 489.845 252.585 490.145 253.647 490.444L260.022 492.206C262.146 492.805 264.232 493.48 266.356 494.08L269.504 495.016C270.567 495.316 271.59 495.691 272.652 496.028L278.948 498.052C281.033 498.727 283.119 499.476 285.165 500.188L288.273 501.275C289.296 501.612 290.319 502.024 291.382 502.399C324.434 514.392 355.951 530.019 385.658 548.307C389.396 550.593 393.056 552.954 396.715 555.315C400.335 557.714 403.994 560.112 407.575 562.585C411.195 565.021 414.697 567.57 418.278 570.081C421.78 572.629 425.321 575.177 428.783 577.801C435.709 583.01 442.555 588.369 449.244 593.878C455.933 599.387 462.504 605.008 468.997 610.742C481.942 622.21 494.337 634.239 506.259 646.681C509.249 649.792 512.2 652.94 515.073 656.088C517.945 659.273 520.817 662.459 523.65 665.719C529.277 672.202 534.825 678.761 539.98 685.581L539.665 685.844Z" fill="#EEEEEE"></path></g><g opacity="0.7778"><path d="M519.361 686.813C507.872 674.521 495.477 663.053 482.807 651.885C470.098 640.755 456.877 630.187 443.302 620.031C429.727 609.875 415.759 600.243 401.397 591.137C387.035 582.03 372.319 573.448 357.249 565.466C327.148 549.464 295.513 535.86 262.618 525.779C260.572 525.142 258.526 524.505 256.44 523.905L250.224 522.144C249.201 521.844 248.138 521.544 247.115 521.282L244.007 520.457L237.75 518.846L231.455 517.347L228.307 516.597L225.159 515.923L218.824 514.574L212.489 513.337C195.57 510.077 178.414 507.94 161.219 506.666C156.93 506.292 152.602 506.142 148.313 505.917C146.149 505.804 143.985 505.767 141.86 505.692L135.407 505.542H128.954C126.79 505.542 124.626 505.505 122.501 505.579L116.048 505.692L112.822 505.767L109.595 505.879C92.3608 506.516 75.1658 507.94 58.089 510.226L51.6753 511.201L48.4882 511.688C47.4258 511.838 46.3634 512.063 45.301 512.213L38.9267 513.3C36.8019 513.674 34.7165 514.124 32.5917 514.536L29.4439 515.136C28.3815 515.323 27.3585 515.586 26.2961 515.81L20.0005 517.197C17.9151 517.684 15.8297 518.209 13.7442 518.696L10.5964 519.446L7.48799 520.27C-9.11673 524.655 -25.4066 530.126 -41.1063 536.797L-44.0574 538.071L-45.5133 538.708L-46.9691 539.383L-52.7926 542.043L-58.5373 544.854C-59.521 545.304 -60.426 545.829 -61.3703 546.278L-64.2034 547.74C-71.7581 551.675 -79.1161 555.947 -86.2774 560.482C-100.6 569.588 -114.057 579.932 -126.333 591.399C-132.471 597.133 -138.373 603.167 -143.921 609.425C-149.43 615.721 -154.703 622.242 -159.542 629.025C-160.762 630.711 -161.943 632.435 -163.123 634.159C-164.264 635.883 -165.445 637.607 -166.546 639.368C-168.789 642.891 -170.953 646.451 -172.96 650.049C-175.006 653.684 -176.895 657.357 -178.705 661.104C-180.475 664.852 -182.167 668.637 -183.544 672.534L-183.741 672.459C-183.112 670.473 -182.364 668.562 -181.577 666.613C-180.79 664.702 -179.964 662.791 -179.138 660.879C-177.406 657.094 -175.557 653.384 -173.59 649.712C-171.622 646.039 -169.537 642.441 -167.333 638.881C-166.232 637.082 -165.13 635.358 -163.989 633.597C-162.808 631.873 -161.667 630.112 -160.447 628.388C-150.886 614.634 -139.829 601.817 -127.553 590.2C-115.276 578.545 -101.82 568.014 -87.4578 558.758C-80.2965 554.111 -72.8598 549.801 -65.3051 545.829L-62.4327 544.33C-61.4884 543.842 -60.5441 543.318 -59.5604 542.868L-53.7763 540.02L-47.9135 537.322L-46.4576 536.647L-44.9624 536.01L-42.0113 534.736L-39.0603 533.462L-36.0698 532.262L-33.0794 531.063L-31.5842 530.463L-30.089 529.901L-24.0295 527.653L-17.9306 525.554C-9.74629 522.818 -1.52262 520.27 6.85838 518.134L10.0062 517.309L13.154 516.56C15.2395 516.073 17.3642 515.548 19.4497 515.061L25.7846 513.712C26.847 513.487 27.9094 513.225 28.9718 513.037L32.1589 512.438C34.2837 512.025 36.4084 511.613 38.5332 511.238L44.9469 510.152C46.0093 509.964 47.0717 509.777 48.134 509.627L51.3606 509.177L57.7742 508.24C74.9298 505.992 92.2038 504.68 109.517 504.193L112.743 504.08L115.97 504.043L122.501 504.08C124.665 504.043 126.829 504.08 128.994 504.118L135.486 504.193L141.978 504.418C144.142 504.493 146.307 504.568 148.471 504.718C152.799 504.98 157.127 505.205 161.416 505.617L167.869 506.179L174.322 506.854L177.549 507.191C178.611 507.303 179.673 507.453 180.775 507.603L187.189 508.428C188.251 508.54 189.313 508.727 190.376 508.877L193.563 509.365L196.75 509.852C197.813 510.002 198.875 510.189 199.937 510.376C204.187 511.126 208.436 511.8 212.686 512.662L219.021 513.899L225.356 515.286L228.504 515.96L231.651 516.71L237.947 518.209C246.289 520.345 254.631 522.556 262.854 525.104C266.986 526.304 271.078 527.653 275.17 528.964C277.216 529.639 279.262 530.351 281.269 531.026C283.315 531.7 285.361 532.412 287.368 533.124L293.427 535.298L299.447 537.584L302.477 538.708L305.468 539.907L311.448 542.306L317.39 544.779C318.374 545.191 319.357 545.604 320.341 546.016L323.292 547.29C325.259 548.152 327.227 549.014 329.194 549.876L335.057 552.537C337.024 553.399 338.913 554.373 340.88 555.272C342.809 556.209 344.737 557.109 346.665 558.083L352.409 560.931L358.115 563.854C365.709 567.827 373.224 571.912 380.582 576.221C387.98 580.531 395.298 584.916 402.459 589.525C409.66 594.135 416.743 598.857 423.707 603.691C430.711 608.563 437.558 613.585 444.325 618.682C457.861 628.95 470.924 639.743 483.555 650.986C489.85 656.607 496.028 662.378 502.048 668.3C508.068 674.221 513.971 680.254 519.519 686.55L519.361 686.813Z" fill="#E9E9E9"></path></g><g opacity="0.8333"><path d="M499.097 687.751C486.742 676.621 473.561 666.39 460.104 656.534C453.375 651.624 446.529 646.827 439.604 642.18C432.679 637.533 425.635 632.999 418.513 628.577C411.392 624.155 404.191 619.882 396.912 615.722C389.632 611.563 382.274 607.515 374.877 603.618C367.44 599.72 359.925 595.935 352.37 592.3C344.776 588.665 337.143 585.18 329.43 581.769C321.718 578.397 313.928 575.174 306.097 572.063L300.195 569.777L297.244 568.653L294.293 567.566C292.326 566.854 290.319 566.104 288.352 565.392L282.371 563.294C266.396 557.785 250.184 552.913 233.737 548.828C200.842 540.696 167.122 535.637 133.204 533.95L126.83 533.688L123.642 533.575L120.455 533.5L114.081 533.351C111.956 533.313 109.831 533.351 107.707 533.313C105.582 533.313 103.457 533.276 101.332 533.313L94.9582 533.425C90.7092 533.463 86.4592 533.65 82.249 533.8L79.0618 533.913L75.8747 534.063L69.5397 534.4C67.4149 534.475 65.2901 534.7 63.2047 534.812L56.8698 535.262L50.5348 535.824C48.41 536.011 46.3246 536.161 44.1998 536.424C39.9896 536.873 35.7795 537.285 31.5693 537.848L25.2737 538.635L18.978 539.534L15.8302 539.984L12.6824 540.508L6.42613 541.558C4.34073 541.933 2.25532 542.307 0.169922 542.719L-2.93857 543.282C-3.96159 543.469 -5.024 543.694 -6.04703 543.919L-12.2639 545.193C-14.3494 545.643 -16.3955 546.13 -18.4415 546.58L-21.55 547.292L-24.6191 548.041L-30.7574 549.578C-34.8495 550.664 -38.9417 551.714 -42.9945 552.913C-47.0473 554.037 -51.1001 555.311 -55.1135 556.548C-59.127 557.86 -63.1404 559.171 -67.1145 560.595C-83.0503 566.142 -98.5139 572.775 -113.506 580.345C-128.458 587.915 -142.859 596.535 -156.394 606.241C-163.162 611.113 -169.733 616.172 -176.108 621.531C-177.721 622.843 -179.255 624.229 -180.829 625.579C-182.364 626.965 -183.938 628.352 -185.433 629.738C-188.502 632.549 -191.453 635.435 -194.365 638.358C-200.149 644.242 -205.697 650.388 -210.852 656.796C-213.449 660.019 -215.927 663.279 -218.288 666.652C-219.469 668.339 -220.61 670.025 -221.751 671.749C-222.853 673.473 -223.954 675.197 -224.938 676.995L-225.135 676.921C-224.19 675.084 -223.128 673.323 -222.066 671.599C-221.003 669.838 -219.862 668.114 -218.721 666.427C-216.4 663.017 -213.999 659.682 -211.442 656.421C-206.405 649.9 -200.936 643.642 -195.191 637.683C-183.662 625.729 -170.992 614.786 -157.457 604.929C-143.921 595.073 -129.52 586.304 -114.529 578.584C-107.052 574.724 -99.3796 571.126 -91.6281 567.791C-83.8766 564.418 -75.9678 561.382 -67.9802 558.534C-64.0061 557.073 -59.9533 555.799 -55.9398 554.449C-51.887 553.213 -47.8342 551.939 -43.7421 550.777C-39.6893 549.578 -35.5578 548.528 -31.4656 547.441L-25.288 545.942L-22.1796 545.193L-19.0711 544.518C-16.9857 544.069 -14.9396 543.581 -12.8542 543.132L-6.59789 541.858C-5.53552 541.67 -4.51248 541.445 -3.48944 541.258L-0.341675 540.696C1.74383 540.321 3.82923 539.946 5.95403 539.572L12.2496 538.56L15.3974 538.072L18.5452 537.623L24.8802 536.723L31.2151 535.936C35.4253 535.374 39.6749 534.999 43.8851 534.55C46.0098 534.325 48.1346 534.175 50.2594 533.988L56.6337 533.463L63.008 533.051C65.1328 532.938 67.2576 532.751 69.3823 532.676L75.7566 532.376L78.9438 532.226L82.131 532.151C99.1292 531.627 116.166 531.777 133.165 532.788C150.163 533.763 167.082 535.712 183.844 538.222C185.93 538.522 188.055 538.859 190.14 539.234L196.436 540.284L202.692 541.445L205.84 542.045C206.863 542.232 207.925 542.457 208.948 542.682L215.204 543.956C217.29 544.368 219.336 544.856 221.421 545.305C225.553 546.167 229.684 547.217 233.816 548.191C234.839 548.416 235.862 548.678 236.885 548.94L239.954 549.727C242 550.252 244.086 550.739 246.092 551.301L252.23 552.95C254.277 553.475 256.323 554.112 258.329 554.674C262.421 555.799 266.474 557.073 270.527 558.272C272.573 558.872 274.58 559.546 276.587 560.183C278.593 560.82 280.639 561.457 282.607 562.132L288.627 564.156C290.634 564.83 292.601 565.542 294.608 566.254L297.598 567.304L300.589 568.39L306.53 570.602C314.439 573.637 322.269 576.748 330.06 580.083C361.105 593.387 390.931 609.239 419.34 627.115C433.544 636.072 447.316 645.591 460.694 655.597C467.383 660.581 473.954 665.753 480.368 671.037C486.782 676.358 493.117 681.755 499.137 687.489L499.097 687.751Z" fill="#CACACA"></path></g><g opacity="0.8889"><path d="M478.834 688.72C465.495 678.939 451.448 670.132 437.165 661.663C422.882 653.231 408.244 645.323 393.371 637.866C385.934 634.156 378.419 630.558 370.864 627.073C363.309 623.587 355.676 620.215 348.003 616.992C340.291 613.769 332.579 610.621 324.788 607.623C316.997 604.662 309.167 601.739 301.258 599.003C285.48 593.494 269.505 588.473 253.333 584.05C237.2 579.591 220.832 575.768 204.345 572.545C187.858 569.36 171.214 566.849 154.531 564.975C152.446 564.75 150.36 564.525 148.275 564.301C146.189 564.076 144.104 563.851 142.018 563.663C137.848 563.326 133.637 562.914 129.467 562.652L123.171 562.239L116.875 561.902C112.665 561.64 108.494 561.527 104.284 561.377C103.222 561.34 102.199 561.302 101.136 561.265L97.9879 561.228L91.6929 561.115C89.6069 561.078 87.483 561.115 85.3972 561.115C83.3118 561.115 81.1869 561.078 79.1015 561.115L66.5103 561.415L60.2147 561.565L57.067 561.64L53.9191 561.79L41.3279 562.427L35.0322 562.764L28.7366 563.289L16.1848 564.301C15.1224 564.376 14.0993 564.45 13.0369 564.563L9.88913 564.9L3.63284 565.612L-2.62347 566.324C-4.70887 566.587 -6.79425 566.774 -8.8797 567.074L-21.3529 568.873L-24.4614 569.322C-25.4844 569.472 -26.5468 569.622 -27.5698 569.81L-33.7474 570.896L-39.925 571.983L-43.0335 572.545C-44.0565 572.733 -45.1189 572.883 -46.1419 573.107L-58.4577 575.693L-61.5268 576.33C-62.0384 576.443 -62.5499 576.555 -63.0614 576.668L-64.596 577.042L-70.6948 578.504L-76.7937 579.965L-79.8628 580.715L-82.8926 581.539L-95.0117 584.875C-111.065 589.559 -126.883 594.956 -142.386 601.139C-157.889 607.323 -172.999 614.331 -187.557 622.313C-202.116 630.258 -216.202 639.065 -229.502 648.846C-236.112 653.793 -242.565 658.89 -248.743 664.324C-250.277 665.673 -251.851 667.022 -253.307 668.446L-255.55 670.545L-257.753 672.681C-260.665 675.566 -263.537 678.489 -266.174 681.6L-266.331 681.488C-263.773 678.302 -260.98 675.304 -258.107 672.343L-255.943 670.17L-253.74 668.034C-252.284 666.572 -250.749 665.223 -249.215 663.836C-243.116 658.29 -236.742 653.043 -230.171 648.022C-216.95 638.091 -202.981 629.021 -188.383 620.927C-173.825 612.832 -158.676 605.674 -143.173 599.34C-127.67 593.007 -111.774 587.573 -95.6806 582.814L-83.5222 579.478L-80.4924 578.654L-77.4233 577.904L-71.285 576.443C-63.1401 574.344 -54.8771 572.808 -46.6141 571.084C-45.5911 570.859 -44.5287 570.709 -43.5056 570.522L-40.3972 569.997L-34.1803 568.91L-27.9633 567.823C-26.9403 567.636 -25.8779 567.486 -24.8549 567.336L-21.7464 566.886L-9.23383 565.125C-7.14842 564.788 -5.06297 564.638 -2.97757 564.376L3.31805 563.701L9.61365 563.026L12.7615 562.689C13.8238 562.577 14.8469 562.502 15.9093 562.427L28.5005 561.452L34.7961 561.003L41.0917 560.703L53.7224 560.141L56.8701 559.991L60.0179 559.953L66.3529 559.878L78.9835 559.729C81.1083 559.729 83.1937 559.766 85.3184 559.766C87.4429 559.803 89.5289 559.803 91.6539 559.841L97.9489 560.028L101.097 560.103C102.159 560.141 103.182 560.178 104.245 560.253C121.086 560.928 137.848 562.314 154.57 564.226L160.827 565.013L163.974 565.387L167.083 565.8L173.339 566.662C175.425 566.961 177.51 567.299 179.556 567.598C183.727 568.198 187.858 568.91 191.99 569.622C194.075 569.959 196.121 570.334 198.207 570.709C200.292 571.084 202.338 571.458 204.424 571.833C208.555 572.658 212.687 573.407 216.779 574.269L222.956 575.543L229.095 576.892C231.141 577.342 233.187 577.829 235.233 578.279L241.371 579.741C245.424 580.752 249.516 581.727 253.569 582.814C269.82 587.048 285.873 591.883 301.77 597.242C309.718 599.94 317.587 602.788 325.418 605.786C333.248 608.784 340.999 611.895 348.711 615.155C364.096 621.676 379.245 628.759 394.119 636.292C408.992 643.862 423.511 651.994 437.755 660.576C444.877 664.886 451.841 669.345 458.727 673.955C465.613 678.564 472.42 683.324 478.913 688.383L478.834 688.72Z" fill="#D9D9D9"></path></g><g opacity="0.9444"><path d="M458.53 689.694C444.128 681.487 429.176 674.254 414.067 667.321C398.957 660.388 383.572 654.055 368.03 648.059C336.985 636.066 305.153 625.91 272.888 617.253C270.881 616.691 268.835 616.204 266.828 615.679L260.769 614.143L254.709 612.606C252.702 612.082 250.656 611.632 248.61 611.145L236.412 608.297L224.136 605.673C222.09 605.261 220.044 604.774 217.998 604.399L211.82 603.237C207.689 602.45 203.597 601.664 199.465 600.914L187.071 598.853L180.854 597.841L174.637 596.979L162.203 595.255C158.032 594.768 153.861 594.281 149.73 593.831L143.473 593.119L141.9 592.932L140.326 592.782L137.178 592.519L124.665 591.433L121.517 591.17L118.37 590.983L112.113 590.571C107.943 590.346 103.732 590.046 99.5609 589.859L87.0099 589.446L80.7139 589.222L79.14 589.184H77.5661L74.4182 589.147C40.8941 588.772 7.33064 590.158 -25.9968 593.344L-29.1053 593.606C-30.1677 593.681 -31.1906 593.831 -32.2137 593.943L-38.47 594.656L-44.7263 595.368L-47.8348 595.742L-49.4087 595.93L-50.9825 596.155L-63.4164 597.878L-66.5249 598.328C-67.5479 598.478 -68.6103 598.59 -69.6333 598.778L-75.8109 599.79L-81.9885 600.802L-85.0969 601.326C-86.12 601.476 -87.143 601.664 -88.2054 601.851L-100.521 604.174C-104.653 604.886 -108.705 605.823 -112.798 606.685C-116.89 607.585 -120.982 608.372 -125.035 609.384L-137.232 612.269L-149.351 615.417L-152.381 616.204C-153.404 616.466 -154.388 616.766 -155.372 617.066L-161.392 618.79L-167.412 620.514L-173.393 622.388C-189.329 627.297 -205.028 632.843 -220.453 639.139C-235.837 645.398 -250.986 652.331 -265.624 660.051C-272.903 663.986 -280.143 668.033 -287.186 672.343C-288.957 673.43 -290.688 674.517 -292.419 675.641L-295.016 677.327L-297.574 679.051C-300.997 681.375 -304.381 683.736 -307.568 686.284L-307.726 686.134C-304.538 683.511 -301.233 681.075 -297.849 678.676L-295.292 676.915L-292.734 675.191C-291.042 674.029 -289.272 672.905 -287.54 671.781C-280.576 667.321 -273.414 663.124 -266.135 659.114C-251.537 651.207 -236.506 644.011 -221.082 637.603C-205.697 631.194 -189.958 625.536 -174.022 620.476L-168.042 618.565L-162.021 616.804L-156.001 615.042C-154.978 614.743 -153.994 614.443 -152.971 614.18L-149.942 613.393L-137.783 610.171L-125.546 607.247L-122.477 606.498C-121.454 606.236 -120.431 606.048 -119.408 605.823L-113.27 604.512C-109.178 603.65 -105.085 602.713 -100.954 602.001L-88.5989 599.677C-87.5758 599.49 -86.5528 599.303 -85.4904 599.153L-82.382 598.665L-76.165 597.654L-69.9481 596.642C-68.9251 596.454 -67.8627 596.342 -66.8397 596.192L-63.7312 595.78L-51.258 594.093L-49.6841 593.869L-48.1102 593.681L-44.9624 593.344L-38.7061 592.669L-32.4498 591.995C-31.3875 591.882 -30.3644 591.77 -29.302 591.657L-26.1542 591.395L-13.6023 590.308C-9.43146 589.896 -5.22127 589.709 -1.05048 589.446L11.5408 588.697C15.751 588.509 19.9218 588.397 24.132 588.247L30.4276 588.022C32.5131 587.947 34.6378 587.872 36.7233 587.872L49.3145 587.76C57.6955 587.61 66.1159 587.872 74.4969 587.985C108.061 588.734 141.545 591.732 174.755 596.342L180.972 597.204L187.189 598.178L199.622 600.015C203.754 600.727 207.885 601.476 212.017 602.188L218.195 603.275C220.241 603.65 222.287 604.099 224.372 604.512L236.688 606.985L248.964 609.721C251.01 610.171 253.056 610.62 255.103 611.107L261.201 612.606L267.3 614.105C269.346 614.593 271.353 615.08 273.399 615.642L285.518 618.865C287.564 619.39 289.532 619.989 291.578 620.551L297.598 622.313C299.605 622.912 301.611 623.474 303.618 624.074L309.599 625.91L315.58 627.784C317.587 628.384 319.554 629.058 321.561 629.695C325.535 631.007 329.509 632.281 333.444 633.63L345.287 637.753C349.222 639.177 353.117 640.638 357.052 642.062C359.02 642.775 360.948 643.562 362.915 644.311L368.738 646.56L371.65 647.684L374.562 648.846L380.346 651.207C381.29 651.619 382.274 651.994 383.218 652.406L386.091 653.642L391.835 656.078C393.763 656.865 395.652 657.727 397.541 658.589L403.246 661.1L408.912 663.686C410.801 664.548 412.69 665.41 414.578 666.309C422.094 669.832 429.53 673.542 436.928 677.365C444.286 681.225 451.565 685.16 458.648 689.469L458.53 689.694Z" fill="#E9E9E9"></path></g><path d="M438.267 690.673C434.411 689.061 430.516 687.562 426.62 686.063L420.757 683.852L414.855 681.716C406.986 678.905 399.037 676.244 391.089 673.584C375.153 668.375 359.1 663.615 342.928 659.155L336.868 657.469L330.769 655.858L324.67 654.246L318.572 652.71C310.427 650.611 302.282 648.7 294.097 646.788C277.729 643.003 261.281 639.631 244.795 636.483L232.4 634.159L219.966 632.023C217.881 631.686 215.835 631.311 213.75 630.974L207.533 629.999C203.362 629.362 199.23 628.688 195.059 628.051C186.718 626.889 178.415 625.615 170.074 624.64L163.817 623.853L160.67 623.478C159.607 623.329 158.584 623.216 157.522 623.104L144.97 621.792C142.884 621.567 140.799 621.342 138.674 621.155L132.379 620.63L119.787 619.581L107.196 618.756C102.986 618.494 98.815 618.194 94.605 618.007L81.9744 617.407C77.7642 617.183 73.554 617.145 69.3438 617.033L56.7133 616.733L44.0826 616.658C-23.2411 616.508 -90.6436 621.642 -156.826 633.26C-173.392 636.145 -189.839 639.406 -206.208 643.153C-222.576 646.863 -238.827 651.023 -254.92 655.708C-271.013 660.392 -286.988 665.451 -302.688 671.223L-308.551 673.396C-310.518 674.146 -312.446 674.895 -314.413 675.645C-316.381 676.394 -318.309 677.144 -320.237 677.931L-323.149 679.093L-326.06 680.292C-327.988 681.079 -329.916 681.903 -331.844 682.728L-334.717 683.964L-337.589 685.239C-341.406 686.963 -345.183 688.724 -348.882 690.598L-349 690.41C-341.642 686.475 -334.048 682.99 -326.375 679.655C-318.702 676.319 -310.951 673.171 -303.121 670.211C-301.153 669.461 -299.186 668.749 -297.219 668.037C-295.251 667.325 -293.284 666.576 -291.316 665.901C-287.342 664.515 -283.408 663.09 -279.433 661.779L-273.453 659.793C-271.446 659.155 -269.439 658.518 -267.472 657.881L-261.452 655.97L-255.431 654.171C-223.245 644.615 -190.429 636.932 -157.259 631.124C-140.694 628.163 -124.01 625.764 -107.288 623.666L-94.7357 622.204C-92.6503 621.942 -90.5649 621.755 -88.4401 621.53L-82.1445 620.893L-75.8489 620.256L-72.701 619.956L-69.5533 619.693L-56.962 618.682C-52.7518 618.307 -48.5416 618.082 -44.3315 617.82L-31.7009 617.033L-19.0703 616.47L-12.7353 616.208C-11.6729 616.171 -10.6499 616.096 -9.58749 616.096L-6.4397 616.021L6.19089 615.721L12.5258 615.571L18.8608 615.534L31.4914 615.496H34.6392C35.7016 615.496 36.764 615.534 37.787 615.534L44.122 615.646L56.7526 615.833L69.3831 616.246C77.8036 616.47 86.2239 616.958 94.644 617.37C98.854 617.557 103.065 617.857 107.236 618.157L119.827 619.019L132.418 620.068L138.714 620.593C140.799 620.78 142.884 621.005 145.009 621.192L157.561 622.429C161.732 622.841 165.942 623.366 170.113 623.853C178.494 624.753 186.836 625.914 195.177 626.964C196.24 627.076 197.263 627.226 198.286 627.376L201.394 627.826L207.651 628.725L213.907 629.624C215.992 629.924 218.078 630.299 220.124 630.599L232.676 632.623L245.11 634.834C278.24 640.867 311.017 648.512 343.361 657.619C359.532 662.191 375.547 667.175 391.443 672.572C399.392 675.27 407.261 678.081 415.091 681.041C422.921 684.002 430.712 687.075 438.346 690.448L438.267 690.673Z" fill="white"></path></g></g><g clip-path="url(#clip1_793_414)"><g opacity="0.5"><g opacity="0.5"><path d="M745.196 -37.98C753.813 -20.778 763.375 -4.02699 773.369 12.463C783.363 28.952 793.869 45.179 804.965 61.031C827.078 92.774 851.317 123.166 878.112 151.386C884.801 158.469 891.687 165.327 898.73 172.11C902.272 175.483 905.813 178.818 909.433 182.116C913.053 185.376 916.712 188.637 920.411 191.822C935.245 204.564 950.866 216.481 967.353 227.274C971.484 229.973 975.655 232.558 979.905 235.107C984.154 237.618 988.443 240.091 992.771 242.415C997.139 244.738 1001.51 247.024 1005.99 249.16C1010.44 251.296 1014.92 253.395 1019.53 255.344C1037.75 263.101 1056.83 269.21 1076.39 273.032C1081.26 273.969 1086.18 274.794 1091.14 275.468C1096.1 276.105 1101.06 276.705 1106.01 277.042L1107.86 277.192L1109.71 277.305L1113.45 277.529C1115.93 277.604 1118.45 277.754 1120.93 277.754C1125.92 277.867 1130.92 277.754 1135.88 277.604C1145.87 277.23 1155.83 276.48 1165.7 275.243L1169.4 274.756C1170.62 274.606 1171.88 274.381 1173.1 274.194C1175.58 273.857 1178.02 273.407 1180.46 272.995C1185.34 272.095 1190.22 271.084 1195.06 269.922C1199.9 268.723 1204.66 267.448 1209.42 265.987C1214.14 264.525 1218.82 262.914 1223.47 261.115C1232.67 257.517 1241.64 253.358 1250.14 248.411C1258.64 243.501 1266.71 237.917 1274.22 231.696C1281.7 225.475 1288.67 218.655 1294.92 211.31C1307.51 196.619 1317.51 180.017 1325.02 162.479C1332.62 144.94 1337.85 126.502 1341.27 107.801C1344.7 89.063 1346.39 70.063 1346.66 51.025C1346.74 46.266 1346.7 41.507 1346.58 36.747C1346.47 31.988 1346.27 27.228 1345.99 22.469C1345.72 17.709 1345.33 12.987 1344.85 8.228C1344.34 3.506 1343.83 -1.25299 1343.04 -5.93799L1343.24 -5.97501C1344.11 -1.29101 1344.77 3.43101 1345.33 8.19101C1345.88 12.912 1346.35 17.672 1346.7 22.431C1347.06 27.191 1347.33 31.95 1347.53 36.71C1347.73 41.469 1347.8 46.229 1347.8 51.025C1347.77 70.101 1346.31 89.213 1343 108.064C1339.7 126.914 1334.54 145.502 1327.03 163.266C1319.47 180.992 1309.48 197.856 1296.69 212.696C1290.32 220.116 1283.31 227.049 1275.68 233.308C1268.05 239.566 1259.86 245.188 1251.25 250.135C1242.63 255.081 1233.54 259.279 1224.21 262.876C1219.53 264.638 1214.81 266.249 1210.01 267.711C1205.21 269.172 1200.37 270.447 1195.49 271.608C1175.97 276.18 1155.91 278.354 1135.88 278.879C1130.88 278.991 1125.84 279.066 1120.85 278.916C1118.33 278.879 1115.85 278.729 1113.33 278.616L1109.59 278.391L1107.71 278.279L1105.82 278.129C1100.82 277.754 1095.86 277.117 1090.9 276.443C1085.95 275.731 1081.03 274.869 1076.11 273.894C1056.51 269.959 1037.39 263.813 1019.13 255.981C1010.01 252.083 1001.07 247.736 992.338 243.052C987.971 240.728 983.682 238.292 979.393 235.781C975.144 233.27 970.933 230.685 966.762 228.024C950.118 217.381 934.34 205.576 919.349 192.947C915.571 189.799 911.912 186.576 908.253 183.315C904.593 180.055 901.013 176.719 897.432 173.384C890.31 166.676 883.385 159.78 876.656 152.735C869.928 145.689 863.357 138.457 856.943 131.149C853.756 127.476 850.569 123.766 847.461 120.056C844.352 116.308 841.244 112.561 838.214 108.776C826.055 93.635 814.527 78.008 803.549 62.043C792.61 46.079 782.222 29.777 772.385 13.137C767.467 4.85499 762.745 -3.57699 758.141 -12.046C753.538 -20.516 749.092 -29.06 744.999 -37.755L745.196 -37.98Z" fill="#D6D6D6"></path></g><g opacity="0.5556"><path d="M765.462 -38.919C774.512 -22.654 784.506 -6.91502 794.894 8.59998C805.282 24.078 816.26 39.218 827.71 54.021C833.415 61.441 839.317 68.712 845.298 75.907C851.279 83.102 857.417 90.223 863.673 97.193C876.225 111.134 889.289 124.663 903.021 137.592L905.579 140.028L908.176 142.427C909.907 144.001 911.638 145.65 913.369 147.224L918.642 151.946L919.98 153.107L921.318 154.269L923.993 156.593C927.535 159.703 931.233 162.664 934.853 165.699L940.401 170.121L943.195 172.332L946.028 174.469C953.504 180.277 961.255 185.749 969.125 191.108L975.066 195.043C977.073 196.354 979.08 197.591 981.087 198.865L984.116 200.777C985.139 201.414 986.162 202.013 987.186 202.613L993.324 206.248L999.58 209.733C1000.64 210.295 1001.66 210.895 1002.73 211.457L1005.92 213.106L1009.1 214.755C1010.16 215.317 1011.23 215.879 1012.29 216.367L1018.74 219.514L1020.36 220.301L1022.01 221.051L1025.27 222.513C1027.48 223.487 1029.6 224.499 1031.85 225.398L1038.49 228.171C1040.7 229.071 1042.98 229.895 1045.22 230.757L1048.57 232.031C1049.71 232.444 1050.85 232.818 1051.95 233.193L1058.76 235.517L1065.64 237.615C1066.79 237.953 1067.93 238.327 1069.11 238.627L1072.57 239.564C1081.82 242.15 1091.26 244.136 1100.74 245.785L1107.86 246.909C1109.04 247.134 1110.27 247.247 1111.45 247.397L1115.03 247.809C1119.79 248.446 1124.63 248.746 1129.39 249.158C1129.98 249.233 1130.61 249.233 1131.2 249.27L1133.01 249.345L1136.63 249.495L1140.25 249.645C1140.84 249.683 1141.47 249.683 1142.06 249.683H1143.87L1151.11 249.72C1153.51 249.683 1155.91 249.608 1158.35 249.533C1167.99 249.308 1177.59 248.521 1187.15 247.546L1194.31 246.61L1197.89 246.16L1201.43 245.56C1203.79 245.148 1206.19 244.811 1208.55 244.398L1215.6 242.974C1224.96 240.951 1234.29 238.59 1243.34 235.517L1245.03 234.955C1245.58 234.767 1246.17 234.58 1246.72 234.392L1250.07 233.156C1252.31 232.331 1254.55 231.544 1256.76 230.57C1258.96 229.633 1261.16 228.771 1263.37 227.797L1269.82 224.799C1278.36 220.601 1286.58 215.879 1294.41 210.595C1302.24 205.311 1309.64 199.427 1316.49 193.057C1323.37 186.686 1329.71 179.79 1335.49 172.482C1341.27 165.175 1346.51 157.492 1351.19 149.51C1355.87 141.527 1360 133.245 1363.62 124.738C1367.24 116.231 1370.31 107.537 1372.95 98.73C1375.55 89.886 1377.75 80.966 1379.52 71.935C1381.29 62.903 1382.59 53.796 1383.53 44.652C1384.44 35.508 1385.03 26.327 1385.19 17.145C1385.27 12.535 1385.27 7.96297 1385.11 3.35397C1384.95 -1.25603 1384.75 -5.82802 1384.32 -10.4L1384.52 -10.437C1385.54 -1.29304 1385.86 7.92596 1385.86 17.145C1385.82 26.364 1385.42 35.546 1384.6 44.727C1383.73 53.909 1382.55 63.053 1380.86 72.122C1379.21 81.191 1377.12 90.223 1374.52 99.105C1371.97 107.986 1368.9 116.756 1365.32 125.375C1361.74 133.957 1357.6 142.352 1352.92 150.447C1343.6 166.636 1331.87 181.664 1317.98 194.631C1304.09 207.56 1288 218.353 1270.68 226.747L1264.11 229.783C1261.91 230.757 1259.67 231.619 1257.43 232.556C1255.22 233.53 1252.94 234.28 1250.66 235.142L1247.27 236.379C1246.72 236.603 1246.13 236.791 1245.54 236.941L1243.81 237.503C1234.64 240.576 1225.24 242.937 1215.79 244.923L1208.67 246.347C1206.27 246.759 1203.91 247.134 1201.51 247.509L1197.93 248.071L1194.31 248.521L1187.11 249.42C1177.47 250.32 1167.83 251.069 1158.11 251.219C1148.43 251.594 1138.75 251.219 1129.07 250.619C1124.27 250.17 1119.43 249.832 1114.63 249.12L1111.05 248.671C1109.87 248.521 1108.65 248.371 1107.47 248.146L1100.31 246.947C1090.83 245.185 1081.34 243.124 1072.1 240.463L1068.64 239.489C1067.46 239.189 1066.35 238.777 1065.17 238.44L1058.29 236.266L1051.48 233.905C1050.34 233.493 1049.2 233.118 1048.1 232.706L1044.75 231.432C1042.51 230.57 1040.27 229.745 1038.02 228.846L1031.37 226.073C1029.13 225.173 1026.97 224.124 1024.8 223.15L1021.54 221.651L1019.88 220.901L1018.27 220.114L1011.82 216.966C1010.71 216.441 1009.69 215.879 1008.63 215.355L1005.44 213.706L1002.26 212.057C1001.19 211.495 1000.17 210.895 999.108 210.333L992.852 206.848C976.286 197.329 960.35 186.836 945.162 175.443L942.29 173.307L939.496 171.133L933.87 166.749C930.21 163.75 926.472 160.827 922.892 157.754L920.177 155.468L918.799 154.307L917.462 153.145L912.11 148.498C910.34 146.924 908.608 145.35 906.838 143.776L904.201 141.415L901.604 138.979C894.679 132.571 887.951 125.937 881.34 119.192C874.73 112.446 868.356 105.55 862.06 98.542C849.508 84.527 837.547 70.023 826.175 55.145C814.804 40.268 804.022 24.977 793.753 9.34998C788.598 1.55498 783.68 -6.35202 778.879 -14.335C774.079 -22.317 769.436 -30.374 765.108 -38.619L765.462 -38.919Z" fill="#FCFCFC"></path></g><g opacity="0.6111"><path d="M785.767 -39.889C795.289 -24.561 805.756 -9.83301 816.616 4.63199C827.476 19.098 838.926 33.151 850.848 46.868C874.654 74.262 900.544 100.046 928.599 123.468C935.603 129.352 942.764 135.011 950.044 140.595L955.552 144.717L956.929 145.729L958.346 146.741L961.14 148.764C964.838 151.463 968.655 154.049 972.432 156.634C974.321 157.909 976.249 159.183 978.177 160.419L981.049 162.331L983.961 164.167C985.929 165.404 987.857 166.64 989.824 167.84L995.766 171.4C997.733 172.599 999.74 173.723 1001.75 174.848L1004.74 176.572C1005.72 177.134 1006.74 177.696 1007.77 178.258L1013.86 181.518L1015.4 182.343L1016.93 183.13L1020.04 184.704C1036.53 193.061 1053.72 200.144 1071.35 205.953L1078 208.014C1079.1 208.351 1080.2 208.726 1081.35 209.026L1084.69 209.963L1088.04 210.899C1089.18 211.199 1090.28 211.537 1091.42 211.799L1098.19 213.448C1100.43 214.01 1102.71 214.497 1104.99 214.947L1108.42 215.659C1109.56 215.884 1110.7 216.146 1111.84 216.333C1116.44 217.12 1121.01 218.02 1125.61 218.62C1134.82 220.044 1144.11 220.793 1153.43 221.393L1160.43 221.655C1161.62 221.693 1162.76 221.767 1163.94 221.767H1167.44L1174.44 221.805L1181.45 221.618C1186.13 221.543 1190.77 221.205 1195.41 220.981C1197.74 220.868 1200.06 220.643 1202.38 220.456L1209.34 219.856L1216.27 219.032L1219.73 218.62C1220.87 218.47 1222.01 218.282 1223.19 218.132L1230.08 217.12C1232.36 216.746 1234.64 216.296 1236.93 215.884L1240.35 215.247C1241.49 215.022 1242.63 214.76 1243.77 214.535L1250.58 213.036C1255.07 211.874 1259.59 210.825 1264.04 209.475L1267.38 208.501C1267.93 208.351 1268.48 208.201 1269.03 208.014L1270.69 207.489L1277.3 205.316C1281.63 203.704 1285.99 202.168 1290.24 200.369L1293.43 199.057C1293.98 198.832 1294.49 198.607 1295 198.345L1296.58 197.633L1299.73 196.209C1300.79 195.722 1301.85 195.272 1302.83 194.747L1309.01 191.674C1311.02 190.588 1313.03 189.463 1315.07 188.377C1323.06 183.842 1330.73 178.82 1338.01 173.349C1345.29 167.877 1352.22 161.919 1358.67 155.548C1365.12 149.177 1371.1 142.356 1376.57 135.236C1387.59 120.957 1396.6 105.293 1403.72 88.916C1407.26 80.708 1410.45 72.351 1413.13 63.844C1413.76 61.708 1414.46 59.609 1415.05 57.436L1415.96 54.213L1416.82 50.99C1417.41 48.854 1417.89 46.68 1418.44 44.507L1419.19 41.246C1419.42 40.159 1419.66 39.073 1419.89 37.986C1421.7 29.291 1423.16 20.485 1424.14 11.64C1424.65 7.21801 1425.05 2.796 1425.28 -1.664C1425.56 -6.086 1425.72 -10.545 1425.64 -15.005H1425.83C1426.15 -6.08601 1425.64 2.83401 1424.81 11.678C1423.95 20.56 1422.65 29.404 1420.92 38.136C1417.45 55.637 1412.34 72.913 1405.26 89.44C1398.17 105.967 1389.2 121.819 1378.22 136.323C1367.25 150.826 1354.14 163.905 1339.43 175.035C1324.67 186.128 1308.38 195.347 1291.11 202.355C1286.82 204.191 1282.41 205.728 1278.01 207.302L1271.36 209.475L1269.7 210C1269.15 210.187 1268.56 210.337 1268.01 210.487L1264.63 211.462C1260.14 212.811 1255.58 213.86 1251.05 214.984L1244.21 216.446C1243.06 216.671 1241.92 216.933 1240.78 217.158L1237.32 217.758C1235 218.17 1232.72 218.582 1230.39 218.957L1223.43 219.969C1222.29 220.119 1221.11 220.306 1219.97 220.456L1216.47 220.831L1209.5 221.618L1202.5 222.18C1200.18 222.367 1197.81 222.592 1195.49 222.667C1190.81 222.892 1186.13 223.192 1181.45 223.229L1174.44 223.379L1167.4 223.304L1163.9 223.267C1162.72 223.267 1161.58 223.154 1160.4 223.117L1153.39 222.779C1144.07 222.105 1134.74 221.205 1125.49 219.706C1107 216.971 1088.86 212.286 1071.16 206.552C1068.95 205.803 1066.75 205.016 1064.54 204.266L1061.24 203.105L1057.97 201.868L1051.44 199.394L1044.99 196.734C1043.93 196.284 1042.82 195.872 1041.76 195.384L1038.58 193.998C1036.45 193.061 1034.33 192.162 1032.2 191.187C1028.03 189.201 1023.78 187.29 1019.69 185.154L1016.58 183.617L1015.05 182.83L1013.51 182.006L1007.37 178.783C1006.35 178.258 1005.33 177.696 1004.34 177.134L1001.31 175.447C999.307 174.323 997.261 173.199 995.293 172.037L989.312 168.552C987.345 167.353 985.378 166.153 983.41 164.954L980.459 163.155L977.548 161.281C975.62 160.045 973.652 158.808 971.724 157.534C967.907 154.948 964.051 152.437 960.313 149.739L957.48 147.753L956.064 146.778L954.687 145.766L949.099 141.719C947.25 140.37 945.44 138.946 943.591 137.559L940.836 135.461L938.121 133.324L932.731 129.052L927.379 124.705C913.214 113.05 899.679 100.72 886.733 87.829C880.28 81.383 873.906 74.825 867.689 68.154C861.511 61.483 855.452 54.663 849.51 47.767C837.667 33.976 826.374 19.735 815.672 5.15701C810.32 -2.15099 805.087 -9.53399 800.051 -17.029C795.014 -24.524 790.096 -32.094 785.531 -39.889H785.767Z" fill="#F3F3F3"></path></g><g opacity="0.6667"><path d="M806.032 -40.868C816.105 -26.515 827.122 -12.798 838.533 0.618011C849.944 14.034 861.905 26.964 874.339 39.555C880.517 45.851 886.891 51.997 893.344 58.031C899.797 64.065 906.329 70.023 913.057 75.832C914.71 77.294 916.441 78.718 918.094 80.142L920.612 82.278L923.209 84.451C924.901 85.876 926.632 87.3 928.324 88.686L933.518 92.846C940.483 98.355 947.487 103.789 954.687 109.036C969.049 119.529 983.922 129.422 999.347 138.454C1003.16 140.74 1007.1 142.914 1010.99 145.125L1016.9 148.31L1019.85 149.884L1022.84 151.421C1024.84 152.433 1026.81 153.445 1028.82 154.456L1034.88 157.379C1036.88 158.354 1038.93 159.291 1040.98 160.228C1043.02 161.127 1045.07 162.101 1047.11 162.963C1051.25 164.725 1055.38 166.524 1059.59 168.135L1062.74 169.372C1063.8 169.784 1064.82 170.196 1065.88 170.571L1072.22 172.894L1073.79 173.457L1075.41 173.981L1078.59 175.068L1081.78 176.155L1083.39 176.68L1085.01 177.167L1091.46 179.153L1093.07 179.64L1094.69 180.09L1097.95 180.989L1101.22 181.889L1102.83 182.338L1104.48 182.751L1111.05 184.4L1112.71 184.812L1114.36 185.187L1117.67 185.899L1120.97 186.611L1122.62 186.985C1123.17 187.098 1123.72 187.21 1124.27 187.285C1128.72 188.11 1133.17 189.009 1137.61 189.646L1140.96 190.171C1142.06 190.358 1143.2 190.546 1144.3 190.658L1151.03 191.52C1152.17 191.67 1153.27 191.82 1154.42 191.932L1157.8 192.27C1160.04 192.494 1162.28 192.719 1164.57 192.907L1171.33 193.356L1174.72 193.581L1178.1 193.694L1184.87 193.918C1187.11 193.956 1189.4 193.956 1191.64 193.956C1196.16 194.031 1200.69 193.844 1205.21 193.769C1206.35 193.731 1207.46 193.731 1208.6 193.694L1211.98 193.506L1218.75 193.169C1219.89 193.131 1220.99 193.019 1222.13 192.944L1225.52 192.682L1228.9 192.419C1230.04 192.344 1231.14 192.269 1232.29 192.12L1239.01 191.408C1240.15 191.295 1241.26 191.183 1242.4 191.033L1245.74 190.583L1252.63 189.759L1259.32 188.672L1262.66 188.11C1263.76 187.922 1264.86 187.697 1265.97 187.473L1272.62 186.198L1279.23 184.737L1282.53 183.987L1285.8 183.163C1294.53 181.027 1303.15 178.328 1311.61 175.368C1313.73 174.581 1315.82 173.869 1317.94 173.044L1324.2 170.571C1324.71 170.346 1325.26 170.159 1325.77 169.934L1327.31 169.259L1330.38 167.91C1331.4 167.46 1332.42 167.011 1333.45 166.561L1336.48 165.137C1344.54 161.314 1352.45 157.08 1359.97 152.395C1367.52 147.711 1374.8 142.614 1381.77 137.105C1388.69 131.596 1395.26 125.712 1401.48 119.454C1413.87 106.937 1424.65 92.996 1433.67 78.081C1434.81 76.244 1435.87 74.333 1436.97 72.459C1437.52 71.522 1438.03 70.548 1438.54 69.611L1440.12 66.763C1441.1 64.814 1442.13 62.903 1443.11 60.954C1444.05 59.005 1445.04 57.057 1445.94 55.07L1447.32 52.11L1448.62 49.112C1449.52 47.126 1450.31 45.102 1451.14 43.116C1452.71 39.068 1454.28 35.021 1455.66 30.936C1458.45 22.729 1460.85 14.409 1462.78 5.97699C1463.77 1.77999 1464.59 -2.45499 1465.3 -6.72699C1466.01 -11 1466.64 -15.272 1466.95 -19.581H1467.15C1466.91 -15.272 1466.36 -10.962 1465.73 -6.69C1465.1 -2.418 1464.32 1.85499 1463.41 6.08899C1461.6 14.559 1459.36 22.954 1456.64 31.198C1455.31 35.321 1453.81 39.406 1452.24 43.49C1451.41 45.514 1450.66 47.538 1449.8 49.561L1448.54 52.56L1447.2 55.558C1446.34 57.544 1445.35 59.53 1444.45 61.479C1443.5 63.465 1442.48 65.376 1441.5 67.362C1440.47 69.274 1439.45 71.222 1438.39 73.134C1437.29 75.045 1436.26 76.956 1435.08 78.83C1426.11 93.895 1415.37 108.061 1402.94 120.766C1390.54 133.47 1376.41 144.675 1361.19 154.157C1353.55 158.916 1345.61 163.151 1337.46 167.011C1329.28 170.833 1320.93 174.356 1312.36 177.279C1303.82 180.24 1295.12 182.9 1286.31 185.037L1283 185.861L1279.7 186.611L1273.05 188.072L1266.36 189.346C1265.26 189.571 1264.12 189.796 1263.01 189.983L1259.63 190.508L1252.94 191.632L1246.17 192.494L1242.79 192.944C1241.65 193.094 1240.55 193.169 1239.41 193.281L1232.64 193.956C1231.5 194.068 1230.36 194.143 1229.26 194.218L1225.87 194.443L1222.49 194.668C1221.35 194.743 1220.2 194.855 1219.1 194.893L1212.3 195.193L1208.91 195.342C1207.77 195.38 1206.63 195.38 1205.49 195.418C1200.96 195.492 1196.4 195.642 1191.88 195.53C1189.59 195.492 1187.31 195.492 1185.07 195.418L1178.26 195.118L1174.88 194.968L1171.49 194.705L1164.68 194.181C1162.44 193.956 1160.16 193.694 1157.92 193.469L1154.53 193.094C1153.39 192.982 1152.29 192.794 1151.15 192.644L1144.42 191.707C1143.28 191.557 1142.18 191.37 1141.08 191.183L1137.73 190.62C1133.25 189.946 1128.8 189.009 1124.35 188.11C1115.5 186.198 1106.69 184.137 1097.99 181.626C1080.56 176.754 1063.6 170.533 1047.04 163.451C1038.77 159.853 1030.59 156.143 1022.6 152.058L1019.57 150.559L1016.58 148.985L1010.6 145.874C1006.67 143.701 1002.69 141.602 998.835 139.316C991.044 134.894 983.411 130.172 975.895 125.375L970.269 121.702L964.721 117.955C963.816 117.318 962.871 116.718 961.966 116.081L959.212 114.17C957.402 112.896 955.553 111.621 953.743 110.31L948.313 106.375C946.503 105.063 944.732 103.714 942.962 102.365L940.286 100.341L937.65 98.28C935.879 96.893 934.108 95.544 932.377 94.158C925.413 88.611 918.566 82.915 911.877 77.069C898.459 65.414 885.593 53.197 873.238 40.53C860.882 27.863 849.078 14.709 837.785 1.17999C832.119 -5.56601 826.65 -12.461 821.338 -19.469C816.026 -26.477 810.832 -33.56 805.992 -40.868H806.032Z" fill="#D5D5D5"></path></g><g opacity="0.7222"><path d="M826.335 -41.8439C837.077 -28.5019 848.724 -15.8349 860.725 -3.54294C872.765 8.74906 885.317 20.5541 898.263 31.9461C924.232 54.7321 951.972 75.6061 981.443 94.1191C985.103 96.4421 988.841 98.6911 992.539 100.939C996.317 103.151 1000.01 105.399 1003.83 107.498C1011.39 111.807 1019.1 115.892 1026.89 119.827L1032.75 122.75L1038.65 125.561L1041.61 126.948L1044.6 128.297L1050.58 130.995L1056.64 133.581C1057.66 133.993 1058.64 134.443 1059.67 134.855L1062.7 136.092C1064.74 136.916 1066.75 137.741 1068.79 138.528L1074.93 140.851C1075.96 141.226 1076.98 141.638 1078 141.976L1081.11 143.062C1083.2 143.774 1085.24 144.524 1087.33 145.236C1091.5 146.585 1095.67 148.009 1099.88 149.208C1102 149.845 1104.09 150.483 1106.21 151.082L1112.59 152.806C1113.65 153.106 1114.71 153.406 1115.78 153.668L1118.96 154.455L1125.38 156.029L1131.83 157.453L1135.06 158.165L1138.28 158.802L1144.77 160.039C1146.94 160.414 1149.1 160.751 1151.31 161.126C1155.63 161.913 1160 162.437 1164.37 163.074C1165.47 163.224 1166.57 163.374 1167.64 163.487L1170.9 163.861L1174.17 164.236L1175.82 164.424C1176.37 164.498 1176.92 164.536 1177.47 164.573L1184.04 165.136C1185.15 165.211 1186.25 165.36 1187.35 165.398L1190.65 165.585L1197.26 165.96L1203.87 166.147C1208.28 166.335 1212.69 166.26 1217.1 166.297H1218.75L1220.4 166.26L1223.71 166.185L1230.32 166.035C1232.52 165.96 1234.72 165.848 1236.93 165.735L1240.23 165.585C1241.33 165.548 1242.44 165.51 1243.54 165.398L1250.15 164.948L1253.45 164.723L1256.76 164.424L1263.33 163.824C1264.43 163.749 1265.53 163.599 1266.59 163.449L1269.86 163.074L1273.13 162.7C1274.23 162.587 1275.33 162.437 1276.39 162.287L1282.92 161.351C1285.09 161.051 1287.25 160.676 1289.42 160.301C1291.58 159.926 1293.75 159.589 1295.91 159.177L1302.36 157.903C1303.42 157.678 1304.53 157.491 1305.59 157.266L1308.82 156.554C1317.39 154.68 1325.85 152.394 1334.27 149.845C1351 144.711 1367.36 138.303 1382.83 130.358C1413.87 114.618 1441.46 92.6951 1463.02 66.1621C1468.41 59.5291 1473.41 52.6331 1478.05 45.5131C1482.69 38.3921 1486.9 31.0101 1490.76 23.4771C1494.57 15.9071 1498.04 8.18705 1500.99 0.279053C1502.48 -3.69295 1503.82 -7.66595 1505.08 -11.713C1506.3 -15.76 1507.44 -19.8079 1508.23 -23.9299L1508.43 -23.8929C1507.68 -19.7329 1506.65 -15.6479 1505.51 -11.5629C1504.37 -7.51593 1503.03 -3.46794 1501.62 0.504059C1500.2 4.47706 1498.67 8.44905 1497.01 12.347C1495.36 16.244 1493.59 20.1041 1491.7 23.9271C1484.19 39.1791 1475.02 53.7201 1464.28 67.1741C1453.54 80.5901 1441.26 92.9201 1427.76 103.863C1421 109.334 1413.95 114.431 1406.59 119.19C1399.28 123.95 1391.64 128.297 1383.85 132.307L1380.94 133.806C1379.96 134.293 1378.97 134.743 1377.99 135.23L1375 136.654C1374.01 137.141 1373.03 137.591 1372.01 138.041L1365.99 140.701L1359.89 143.212C1357.88 144.074 1355.8 144.824 1353.71 145.573L1350.6 146.735C1349.58 147.147 1348.52 147.447 1347.49 147.822C1345.41 148.534 1343.32 149.246 1341.24 149.958L1334.9 151.907C1326.44 154.417 1317.9 156.704 1309.25 158.54L1306.02 159.252C1304.96 159.477 1303.86 159.664 1302.76 159.889L1296.26 161.163C1294.1 161.575 1291.9 161.913 1289.73 162.25C1287.57 162.625 1285.36 162.999 1283.16 163.262C1265.65 165.81 1247.98 167.234 1230.32 167.721C1212.65 168.209 1194.9 167.534 1177.32 165.735C1159.73 163.936 1142.34 160.788 1125.14 156.816L1118.73 155.204L1115.54 154.418C1114.48 154.155 1113.41 153.855 1112.35 153.556L1105.98 151.794C1103.85 151.195 1101.77 150.52 1099.64 149.92L1096.5 148.984C1095.43 148.684 1094.41 148.309 1093.35 147.972L1087.05 145.948C1084.97 145.273 1082.88 144.524 1080.83 143.812L1077.73 142.725C1076.7 142.388 1075.68 141.976 1074.62 141.601C1041.57 129.608 1010.05 113.981 980.342 95.6931C976.604 93.4071 972.944 91.0461 969.285 88.6851C965.665 86.2861 962.006 83.8881 958.425 81.4151C954.805 78.9791 951.303 76.4301 947.722 73.9191C944.22 71.3711 940.679 68.8231 937.217 66.1991C930.291 60.9901 923.445 55.6311 916.756 50.1221C910.067 44.6131 903.496 38.9921 897.003 33.2581C884.058 21.7901 871.663 9.76106 859.741 -2.68094C856.751 -5.79194 853.8 -8.93995 850.927 -12.088C848.055 -15.273 845.183 -18.4589 842.35 -21.7189C836.723 -28.2019 831.175 -34.7609 826.02 -41.5809L826.335 -41.8439Z" fill="#EEEEEE"></path></g><g opacity="0.7778"><path d="M846.639 -42.813C858.128 -30.521 870.523 -19.053 883.193 -7.88498C895.902 3.24502 909.123 13.813 922.698 23.969C936.273 34.125 950.241 43.757 964.603 52.863C978.965 61.97 993.681 70.552 1008.75 78.534C1038.85 94.536 1070.49 108.14 1103.38 118.221C1105.43 118.858 1107.47 119.495 1109.56 120.095L1115.78 121.856C1116.8 122.156 1117.86 122.456 1118.89 122.718L1121.99 123.543L1128.25 125.154L1134.55 126.653L1137.69 127.403L1140.84 128.077L1147.18 129.426L1153.51 130.663C1170.43 133.923 1187.59 136.06 1204.78 137.334C1209.07 137.708 1213.4 137.858 1217.69 138.083C1219.85 138.196 1222.02 138.233 1224.14 138.308L1230.59 138.458H1237.05C1239.21 138.458 1241.37 138.495 1243.5 138.421L1249.95 138.308L1253.18 138.233L1256.41 138.121C1273.64 137.484 1290.83 136.06 1307.91 133.774L1314.32 132.799L1317.51 132.312C1318.57 132.162 1319.64 131.937 1320.7 131.787L1327.07 130.7C1329.2 130.326 1331.28 129.876 1333.41 129.464L1336.56 128.864C1337.62 128.677 1338.64 128.414 1339.7 128.19L1346 126.803C1348.08 126.316 1350.17 125.791 1352.26 125.304L1355.4 124.554L1358.51 123.73C1375.12 119.345 1391.41 113.874 1407.11 107.203L1410.06 105.929L1411.51 105.292L1412.97 104.617L1418.79 101.957L1424.54 99.146C1425.52 98.696 1426.43 98.171 1427.37 97.722L1430.2 96.26C1437.76 92.325 1445.12 88.053 1452.28 83.518C1466.6 74.412 1480.06 64.068 1492.33 52.601C1498.47 46.867 1504.37 40.833 1509.92 34.575C1515.43 28.279 1520.7 21.758 1525.54 14.975C1526.76 13.289 1527.94 11.565 1529.12 9.84103C1530.26 8.11703 1531.45 6.39302 1532.55 4.63202C1534.79 1.10902 1536.95 -2.45098 1538.96 -6.04898C1541.01 -9.68398 1542.9 -13.357 1544.71 -17.104C1546.48 -20.852 1548.17 -24.637 1549.54 -28.534L1549.74 -28.459C1549.11 -26.473 1548.36 -24.562 1547.58 -22.613C1546.79 -20.702 1545.96 -18.791 1545.14 -16.879C1543.41 -13.094 1541.56 -9.38398 1539.59 -5.71198C1537.62 -2.03898 1535.54 1.55902 1533.33 5.11902C1532.23 6.91802 1531.13 8.64205 1529.99 10.403C1528.81 12.127 1527.67 13.888 1526.45 15.612C1516.89 29.366 1505.83 42.183 1493.55 53.8C1481.28 65.455 1467.82 75.986 1453.46 85.242C1446.3 89.889 1438.86 94.199 1431.31 98.171L1428.43 99.67C1427.49 100.158 1426.54 100.682 1425.56 101.132L1419.78 103.98L1413.91 106.678L1412.46 107.353L1410.96 107.99L1408.01 109.264L1405.06 110.538L1402.07 111.738L1399.08 112.937L1397.58 113.537L1396.09 114.099L1390.03 116.347L1383.93 118.446C1375.75 121.182 1367.52 123.73 1359.14 125.866L1355.99 126.691L1352.85 127.44C1350.76 127.927 1348.64 128.452 1346.55 128.939L1340.22 130.288C1339.15 130.513 1338.09 130.775 1337.03 130.963L1333.84 131.562C1331.72 131.975 1329.59 132.387 1327.47 132.762L1321.05 133.848C1319.99 134.036 1318.93 134.223 1317.87 134.373L1314.64 134.823L1308.23 135.76C1291.07 138.008 1273.8 139.32 1256.48 139.807L1253.26 139.92L1250.03 139.957L1243.5 139.92C1241.34 139.957 1239.17 139.92 1237.01 139.882L1230.51 139.807L1224.02 139.582C1221.86 139.507 1219.69 139.432 1217.53 139.282C1213.2 139.02 1208.87 138.795 1204.58 138.383L1198.13 137.821L1191.68 137.146L1188.45 136.809C1187.39 136.697 1186.33 136.547 1185.23 136.397L1178.81 135.572C1177.75 135.46 1176.69 135.273 1175.62 135.123L1172.44 134.635L1169.25 134.148C1168.19 133.998 1167.13 133.811 1166.06 133.624C1161.81 132.874 1157.56 132.2 1153.31 131.338L1146.98 130.101L1140.64 128.714L1137.5 128.04L1134.35 127.29L1128.05 125.791C1119.71 123.655 1111.37 121.444 1103.15 118.896C1099.01 117.696 1094.92 116.347 1090.83 115.036C1088.78 114.361 1086.74 113.649 1084.73 112.974C1082.69 112.3 1080.64 111.588 1078.63 110.876L1072.57 108.702L1066.55 106.416L1063.52 105.292L1060.53 104.093L1054.55 101.694L1048.61 99.221C1047.63 98.809 1046.64 98.396 1045.66 97.984L1042.71 96.71C1040.74 95.848 1038.77 94.986 1036.81 94.124L1030.94 91.463C1028.98 90.601 1027.09 89.627 1025.12 88.728C1023.19 87.791 1021.26 86.891 1019.34 85.917L1013.59 83.069L1007.89 80.146C1000.29 76.173 992.776 72.088 985.418 67.779C978.02 63.469 970.702 59.084 963.541 54.475C956.34 49.865 949.257 45.143 942.293 40.309C935.289 35.437 928.442 30.415 921.675 25.318C908.139 15.05 895.076 4.25704 882.445 -6.98596C876.15 -12.607 869.972 -18.378 863.952 -24.3C857.932 -30.221 852.029 -36.254 846.481 -42.55L846.639 -42.813Z" fill="#E9E9E9"></path></g><g opacity="0.8333"><path d="M866.903 -43.7511C879.258 -32.6211 892.439 -22.3901 905.896 -12.5341C912.625 -7.62407 919.471 -2.82706 926.396 1.81994C933.321 6.46694 940.365 11.0009 947.487 15.4229C954.608 19.8449 961.809 24.1179 969.088 28.2779C976.368 32.4369 983.726 36.4849 991.123 40.3819C998.56 44.2799 1006.07 48.0649 1013.63 51.6999C1021.22 55.3349 1028.86 58.8199 1036.57 62.2309C1044.28 65.6029 1052.07 68.8259 1059.9 71.9369L1065.8 74.2229L1068.76 75.3469L1071.71 76.4339C1073.67 77.1459 1075.68 77.8959 1077.65 78.6079L1083.63 80.7059C1099.6 86.2149 1115.82 91.0869 1132.26 95.1719C1165.16 103.304 1198.88 108.363 1232.8 110.05L1239.17 110.312L1242.36 110.425L1245.54 110.5L1251.92 110.649C1254.04 110.687 1256.17 110.649 1258.29 110.687C1260.42 110.687 1262.54 110.724 1264.67 110.687L1271.04 110.575C1275.29 110.537 1279.54 110.35 1283.75 110.2L1286.94 110.087L1290.13 109.937L1296.46 109.6C1298.59 109.525 1300.71 109.3 1302.8 109.188L1309.13 108.738L1315.47 108.176C1317.59 107.989 1319.68 107.839 1321.8 107.576C1326.01 107.127 1330.22 106.715 1334.43 106.152L1340.73 105.365L1347.02 104.466L1350.17 104.016L1353.32 103.492L1359.57 102.442C1361.66 102.067 1363.74 101.693 1365.83 101.281L1368.94 100.718C1369.96 100.531 1371.02 100.306 1372.05 100.081L1378.26 98.8069C1380.35 98.3569 1382.4 97.8699 1384.44 97.4199L1387.55 96.7079L1390.62 95.9589L1396.76 94.4219C1400.85 93.3359 1404.94 92.2859 1408.99 91.0869C1413.05 89.9629 1417.1 88.6889 1421.11 87.4519C1425.13 86.1399 1429.14 84.8289 1433.11 83.4049C1449.05 77.8579 1464.51 71.2249 1479.51 63.6549C1494.46 56.0849 1508.86 47.4649 1522.39 37.7589C1529.16 32.8869 1535.73 27.8279 1542.11 22.4689C1543.72 21.1569 1545.25 19.7709 1546.83 18.4209C1548.36 17.0349 1549.94 15.6479 1551.43 14.2619C1554.5 11.4509 1557.45 8.56493 1560.36 5.64193C1566.15 -0.24207 1571.7 -6.38806 1576.85 -12.7961C1579.45 -16.0191 1581.93 -19.2791 1584.29 -22.6521C1585.47 -24.3391 1586.61 -26.0251 1587.75 -27.7491C1588.85 -29.4731 1589.95 -31.1971 1590.94 -32.9951L1591.13 -32.9211C1590.19 -31.0841 1589.13 -29.3231 1588.07 -27.5991C1587 -25.8381 1585.86 -24.1141 1584.72 -22.4271C1582.4 -19.0171 1580 -15.6821 1577.44 -12.4211C1572.4 -5.90006 1566.94 0.357917 1561.19 6.31692C1549.66 18.2709 1536.99 29.2139 1523.46 39.0709C1509.92 48.9269 1495.52 57.6959 1480.53 65.4159C1473.05 69.2759 1465.38 72.8739 1457.63 76.2089C1449.88 79.5819 1441.97 82.6179 1433.98 85.4659C1430.01 86.9269 1425.95 88.2009 1421.94 89.5509C1417.89 90.7869 1413.83 92.0609 1409.74 93.2229C1405.69 94.4219 1401.56 95.4719 1397.47 96.5589L1391.29 98.0579L1388.18 98.8069L1385.07 99.4819C1382.99 99.9309 1380.94 100.419 1378.85 100.868L1372.6 102.142C1371.54 102.33 1370.51 102.555 1369.49 102.742L1366.34 103.304C1364.26 103.679 1362.17 104.054 1360.05 104.428L1353.75 105.44L1350.6 105.928L1347.45 106.377L1341.12 107.277L1334.78 108.064C1330.57 108.626 1326.33 109.001 1322.11 109.45C1319.99 109.675 1317.87 109.825 1315.74 110.012L1309.37 110.537L1302.99 110.949C1300.87 111.062 1298.74 111.249 1296.62 111.324L1290.24 111.624L1287.06 111.774L1283.87 111.849C1266.87 112.373 1249.83 112.223 1232.83 111.212C1215.84 110.237 1198.92 108.288 1182.16 105.778C1180.07 105.478 1177.94 105.141 1175.86 104.766L1169.56 103.716L1163.31 102.555L1160.16 101.955C1159.14 101.768 1158.07 101.543 1157.05 101.318L1150.8 100.044C1148.71 99.6319 1146.66 99.1439 1144.58 98.6949C1140.45 97.8329 1136.32 96.7829 1132.18 95.8089C1131.16 95.5839 1130.14 95.3219 1129.11 95.0599L1126.05 94.2729C1124 93.7479 1121.91 93.2609 1119.91 92.6989L1113.77 91.0499C1111.72 90.5249 1109.68 89.8879 1107.67 89.3259C1103.58 88.2009 1099.53 86.9269 1095.47 85.7279C1093.43 85.1279 1091.42 84.4539 1089.41 83.8169C1087.41 83.1799 1085.36 82.5429 1083.39 81.8679L1077.37 79.8439C1075.37 79.1699 1073.4 78.4579 1071.39 77.7459L1068.4 76.6959L1065.41 75.6099L1059.47 73.3979C1051.56 70.3629 1043.73 67.2519 1035.94 63.9169C1004.89 50.6129 975.069 34.7609 946.66 16.8849C932.456 7.92794 918.684 -1.59105 905.306 -11.5971C898.617 -16.5811 892.046 -21.7531 885.632 -27.0371C879.218 -32.3581 872.883 -37.7551 866.863 -43.4891L866.903 -43.7511Z" fill="#CACACA"></path></g><g opacity="0.8889"><path d="M887.166 -44.72C900.505 -34.939 914.552 -26.132 928.835 -17.663C943.118 -9.23099 957.756 -1.323 972.629 6.134C980.066 9.844 987.581 13.442 995.136 16.927C1002.69 20.413 1010.32 23.785 1018 27.008C1025.71 30.231 1033.42 33.379 1041.21 36.377C1049 39.338 1056.83 42.261 1064.74 44.997C1080.52 50.506 1096.5 55.527 1112.67 59.95C1128.8 64.409 1145.17 68.232 1161.66 71.455C1178.14 74.64 1194.79 77.151 1211.47 79.025C1213.55 79.25 1215.64 79.475 1217.73 79.699C1219.81 79.924 1221.9 80.149 1223.98 80.337C1228.15 80.674 1232.36 81.086 1236.53 81.348L1242.83 81.761L1249.13 82.098C1253.34 82.36 1257.51 82.473 1261.72 82.623C1262.78 82.66 1263.8 82.698 1264.86 82.735L1268.01 82.772L1274.31 82.885C1276.39 82.922 1278.52 82.885 1280.6 82.885C1282.69 82.885 1284.81 82.922 1286.9 82.885L1299.49 82.585L1305.79 82.435L1308.93 82.36L1312.08 82.21L1324.67 81.573L1330.97 81.236L1337.26 80.711L1349.82 79.699C1350.88 79.624 1351.9 79.55 1352.96 79.437L1356.11 79.1L1362.37 78.388L1368.62 77.676C1370.71 77.413 1372.79 77.226 1374.88 76.926L1387.35 75.127L1390.46 74.678C1391.48 74.528 1392.55 74.378 1393.57 74.19L1399.75 73.104L1405.92 72.017L1409.03 71.455C1410.06 71.267 1411.12 71.117 1412.14 70.893L1424.46 68.307L1427.53 67.67C1428.04 67.557 1428.55 67.445 1429.06 67.332L1430.6 66.958L1436.69 65.496L1442.79 64.035L1445.86 63.285L1448.89 62.461L1461.01 59.125C1477.07 54.441 1492.88 49.044 1508.39 42.861C1523.89 36.677 1539 29.669 1553.56 21.687C1568.12 13.742 1582.2 4.93499 1595.5 -4.84601C1602.11 -9.79301 1608.57 -14.89 1614.74 -20.324C1616.28 -21.673 1617.85 -23.022 1619.31 -24.446L1621.55 -26.545L1623.75 -28.681C1626.67 -31.566 1629.54 -34.489 1632.17 -37.6L1632.33 -37.488C1629.77 -34.302 1626.98 -31.304 1624.11 -28.343L1621.94 -26.17L1619.74 -24.034C1618.28 -22.572 1616.75 -21.223 1615.22 -19.836C1609.12 -14.29 1602.74 -9.043 1596.17 -4.022C1582.95 5.909 1568.98 14.979 1554.38 23.073C1539.83 31.168 1524.68 38.326 1509.17 44.66C1493.67 50.993 1477.77 56.427 1461.68 61.186L1449.52 64.522L1446.49 65.346L1443.42 66.096L1437.28 67.557C1429.14 69.656 1420.88 71.192 1412.61 72.916C1411.59 73.141 1410.53 73.291 1409.51 73.478L1406.4 74.003L1400.18 75.09L1393.96 76.177C1392.94 76.364 1391.88 76.514 1390.85 76.664L1387.75 77.114L1375.23 78.875C1373.15 79.212 1371.06 79.362 1368.98 79.624L1362.68 80.299L1356.39 80.974L1353.24 81.311C1352.18 81.423 1351.15 81.498 1350.09 81.573L1337.5 82.548L1331.2 82.997L1324.91 83.297L1312.28 83.859L1309.13 84.009L1305.98 84.047L1299.65 84.122L1287.02 84.271C1284.89 84.271 1282.81 84.234 1280.68 84.234C1278.56 84.197 1276.47 84.197 1274.35 84.159L1268.05 83.972L1264.9 83.897C1263.84 83.859 1262.82 83.822 1261.76 83.747C1244.91 83.072 1228.15 81.686 1211.43 79.774L1205.17 78.987L1202.03 78.613L1198.92 78.2L1192.66 77.338C1190.58 77.039 1188.49 76.701 1186.44 76.402C1182.27 75.802 1178.14 75.09 1174.01 74.378C1171.93 74.041 1169.88 73.666 1167.79 73.291C1165.71 72.916 1163.66 72.542 1161.58 72.167C1157.45 71.342 1153.31 70.593 1149.22 69.731L1143.04 68.457L1136.91 67.108C1134.86 66.658 1132.81 66.171 1130.77 65.721L1124.63 64.259C1120.58 63.248 1116.48 62.273 1112.43 61.186C1096.18 56.952 1080.13 52.117 1064.23 46.758C1056.28 44.06 1048.41 41.212 1040.58 38.214C1032.75 35.216 1025 32.105 1017.29 28.845C1001.9 22.324 986.755 15.241 971.881 7.70801C957.008 0.138008 942.489 -7.99399 928.245 -16.576C921.123 -20.886 914.159 -25.345 907.273 -29.955C900.387 -34.564 893.58 -39.324 887.087 -44.383L887.166 -44.72Z" fill="#D9D9D9"></path></g><g opacity="0.9444"><path d="M907.47 -45.694C921.872 -37.487 936.824 -30.2541 951.933 -23.3211C967.043 -16.3881 982.428 -10.055 997.97 -4.05903C1029.02 7.93397 1060.85 18.09 1093.11 26.747C1095.12 27.309 1097.17 27.796 1099.17 28.321L1105.23 29.857L1111.29 31.394C1113.3 31.918 1115.34 32.368 1117.39 32.855L1129.59 35.703L1141.86 38.327C1143.91 38.739 1145.96 39.226 1148 39.601L1154.18 40.763C1158.31 41.55 1162.4 42.336 1166.54 43.086L1178.93 45.147L1185.15 46.159L1191.36 47.021L1203.8 48.745C1207.97 49.232 1212.14 49.719 1216.27 50.169L1222.53 50.881L1224.1 51.0679L1225.67 51.218L1228.82 51.481L1241.34 52.567L1244.48 52.83L1247.63 53.017L1253.89 53.429C1258.06 53.654 1262.27 53.954 1266.44 54.141L1278.99 54.554L1285.29 54.778L1286.86 54.816H1288.43L1291.58 54.853C1325.11 55.228 1358.67 53.842 1392 50.656L1395.11 50.394C1396.17 50.319 1397.19 50.169 1398.21 50.057L1404.47 49.344L1410.73 48.632L1413.83 48.258L1415.41 48.07L1416.98 47.845L1429.42 46.122L1432.52 45.672C1433.55 45.522 1434.61 45.41 1435.63 45.222L1441.81 44.21L1447.99 43.198L1451.1 42.674C1452.12 42.524 1453.14 42.336 1454.21 42.149L1466.52 39.826C1470.65 39.114 1474.71 38.177 1478.8 37.315C1482.89 36.415 1486.98 35.628 1491.04 34.616L1503.23 31.731L1515.35 28.5829L1518.38 27.796C1519.4 27.534 1520.39 27.234 1521.37 26.934L1527.39 25.21L1533.41 23.486L1539.39 21.612C1555.33 16.703 1571.03 11.157 1586.45 4.86095C1601.84 -1.39805 1616.99 -8.33104 1631.62 -16.051C1638.9 -19.986 1646.14 -24.033 1653.19 -28.343C1654.96 -29.43 1656.69 -30.517 1658.42 -31.641L1661.02 -33.327L1663.57 -35.051C1667 -37.375 1670.38 -39.736 1673.57 -42.284L1673.73 -42.134C1670.54 -39.511 1667.23 -37.075 1663.85 -34.676L1661.29 -32.9151L1658.73 -31.1911C1657.04 -30.0291 1655.27 -28.9051 1653.54 -27.7811C1646.58 -23.3211 1639.41 -19.1241 1632.14 -15.1141C1617.54 -7.20706 1602.51 -0.0110388 1587.08 6.39696C1571.7 12.806 1555.96 18.464 1540.02 23.524L1534.04 25.435L1528.02 27.196L1522 28.9579C1520.98 29.2569 1519.99 29.557 1518.97 29.82L1515.94 30.607L1503.78 33.829L1491.55 36.753L1488.48 37.502C1487.45 37.764 1486.43 37.952 1485.41 38.177L1479.27 39.488C1475.18 40.35 1471.09 41.2869 1466.95 41.9989L1454.6 44.323C1453.58 44.51 1452.55 44.697 1451.49 44.847L1448.38 45.335L1442.16 46.3459L1435.95 47.358C1434.93 47.546 1433.86 47.658 1432.84 47.808L1429.73 48.22L1417.26 49.907L1415.68 50.131L1414.11 50.319L1410.96 50.656L1404.71 51.3309L1398.45 52.005C1397.39 52.118 1396.36 52.23 1395.3 52.343L1392.15 52.605L1379.6 53.692C1375.43 54.104 1371.22 54.291 1367.05 54.554L1354.46 55.303C1350.25 55.491 1346.08 55.603 1341.87 55.753L1335.57 55.978C1333.49 56.053 1331.36 56.128 1329.28 56.128L1316.69 56.24C1308.3 56.39 1299.88 56.128 1291.5 56.015C1257.94 55.266 1224.46 52.268 1191.25 47.658L1185.03 46.796L1178.81 45.822L1166.38 43.985C1162.25 43.273 1158.12 42.524 1153.98 41.812L1147.81 40.725C1145.76 40.35 1143.71 39.901 1141.63 39.488L1129.31 37.015L1117.04 34.279C1114.99 33.829 1112.94 33.38 1110.9 32.893L1104.8 31.394L1098.7 29.895C1096.65 29.407 1094.65 28.92 1092.6 28.358L1080.48 25.135C1078.44 24.61 1076.47 24.011 1074.42 23.449L1068.4 21.687C1066.4 21.088 1064.39 20.526 1062.38 19.926L1056.4 18.09L1050.42 16.216C1048.41 15.616 1046.45 14.942 1044.44 14.305C1040.47 12.993 1036.49 11.719 1032.56 10.37L1020.71 6.24697C1016.78 4.82297 1012.88 3.36195 1008.95 1.93795C1006.98 1.22495 1005.05 0.437953 1003.09 -0.311047L997.262 -2.56004L994.35 -3.68403L991.438 -4.84605L985.654 -7.20704C984.71 -7.61904 983.726 -7.99405 982.782 -8.40605L979.909 -9.64204L974.165 -12.078C972.237 -12.865 970.348 -13.727 968.459 -14.589L962.754 -17.1001L957.088 -19.6861C955.199 -20.5481 953.31 -21.41 951.422 -22.309C943.906 -25.832 936.47 -29.542 929.072 -33.365C921.714 -37.225 914.435 -41.16 907.352 -45.469L907.47 -45.694Z" fill="#E9E9E9"></path></g><path d="M927.733 -46.6731C931.589 -45.0611 935.484 -43.5621 939.38 -42.0631L945.243 -39.8521L951.145 -37.7161C959.014 -34.9051 966.963 -32.2441 974.911 -29.5841C990.847 -24.3751 1006.9 -19.6151 1023.07 -15.1551L1029.13 -13.4691L1035.23 -11.8581L1041.33 -10.2461L1047.43 -8.71008C1055.57 -6.61108 1063.72 -4.70009 1071.9 -2.78809C1088.27 0.996914 1104.72 4.36891 1121.2 7.51691L1133.6 9.84091L1146.03 11.9769C1148.12 12.3139 1150.16 12.6889 1152.25 13.0259L1158.47 14.0009C1162.64 14.6379 1166.77 15.3119 1170.94 15.9489C1179.28 17.1109 1187.59 18.3849 1195.93 19.3599L1202.18 20.1469L1205.33 20.5219C1206.39 20.6709 1207.42 20.7839 1208.48 20.8959L1221.03 22.2079C1223.12 22.4329 1225.2 22.6579 1227.33 22.8449L1233.62 23.3699L1246.21 24.4189L1258.8 25.2439C1263.01 25.5059 1267.18 25.8059 1271.39 25.9929L1284.03 26.5929C1288.24 26.8169 1292.45 26.8549 1296.66 26.9669L1309.29 27.2669L1321.92 27.3419C1389.24 27.4919 1456.64 22.3579 1522.83 10.7399C1539.39 7.8549 1555.84 4.59389 1572.21 0.846893C1588.58 -2.86311 1604.83 -7.0231 1620.92 -11.7081C1637.01 -16.3921 1652.99 -21.4511 1668.69 -27.2231L1674.55 -29.3961C1676.52 -30.1461 1678.45 -30.8951 1680.41 -31.6451C1682.38 -32.3941 1684.31 -33.1441 1686.24 -33.9311L1689.15 -35.0931L1692.06 -36.2921C1693.99 -37.0791 1695.92 -37.9031 1697.84 -38.7281L1700.72 -39.9641L1703.59 -41.2391C1707.41 -42.9631 1711.18 -44.7241 1714.88 -46.5981L1715 -46.4101C1707.64 -42.4751 1700.05 -38.9901 1692.38 -35.6551C1684.7 -32.3191 1676.95 -29.1711 1669.12 -26.2111C1667.15 -25.4611 1665.19 -24.7491 1663.22 -24.0371C1661.25 -23.3251 1659.28 -22.5761 1657.32 -21.9011C1653.34 -20.5151 1649.41 -19.0901 1645.43 -17.7791L1639.45 -15.7931C1637.45 -15.1551 1635.44 -14.5181 1633.47 -13.8811L1627.45 -11.9701L1621.43 -10.1711C1589.24 -0.615082 1556.43 7.06792 1523.26 12.8759C1506.69 15.8369 1490.01 18.2359 1473.29 20.3339L1460.74 21.7959C1458.65 22.0579 1456.56 22.2449 1454.44 22.4699L1448.14 23.1069L1441.85 23.7439L1438.7 24.0439L1435.55 24.3069L1422.96 25.3179C1418.75 25.6929 1414.54 25.9179 1410.33 26.1799L1397.7 26.9669L1385.07 27.5299L1378.74 27.7919C1377.67 27.8289 1376.65 27.9039 1375.59 27.9039L1372.44 27.9789L1359.81 28.2789L1353.47 28.4289L1347.14 28.4659L1334.51 28.5039H1331.36C1330.3 28.5039 1329.24 28.4659 1328.21 28.4659L1321.88 28.3539L1309.25 28.1669L1296.62 27.7539C1288.2 27.5299 1279.78 27.0419 1271.36 26.6299C1267.15 26.4429 1262.94 26.1429 1258.76 25.8429L1246.17 24.9809L1233.58 23.9319L1227.29 23.4069C1225.2 23.2199 1223.12 22.9949 1220.99 22.8079L1208.44 21.5709C1204.27 21.1589 1200.06 20.6339 1195.89 20.1469C1187.51 19.2469 1179.16 18.0859 1170.82 17.0359C1169.76 16.9239 1168.74 16.7739 1167.71 16.6239L1164.61 16.1739L1158.35 15.2749L1152.09 14.3759C1150.01 14.0759 1147.92 13.7009 1145.88 13.4009L1133.32 11.3769L1120.89 9.16589C1087.76 3.13289 1054.98 -4.51208 1022.64 -13.6191C1006.47 -18.1911 990.453 -23.1751 974.557 -28.5721C966.608 -31.2701 958.739 -34.0811 950.909 -37.0411C943.079 -40.0021 935.288 -43.0751 927.654 -46.4481L927.733 -46.6731Z" fill="white"></path></g></g><defs><clipPath id="clip0_793_414"><rect width="634" height="279" fill="white" transform="translate(0 365)"></rect></clipPath><clipPath id="clip1_793_414"><rect width="634" height="279" fill="white" transform="matrix(-1 0 0 -1 1366 279)"></rect></clipPath></defs></svg>