<svg xmlns="http://www.w3.org/2000/svg" width="634" height="279" viewBox="0 0 634 279" fill="none"><g clip-path="url(#clip0_766_204)"><g opacity="0.5"><g opacity="0.5"><path d="M620.804 316.98C612.187 299.778 602.625 283.027 592.631 266.537C582.637 250.048 572.131 233.821 561.035 217.969C538.922 186.226 514.683 155.834 487.888 127.614C481.199 120.531 474.313 113.673 467.27 106.89C463.728 103.517 460.187 100.182 456.567 96.8841C452.947 93.6237 449.288 90.3633 445.589 87.1778C430.755 74.436 415.134 62.5187 398.647 51.7257C394.516 49.0274 390.345 46.4416 386.095 43.8932C381.846 41.3823 377.557 38.9089 373.229 36.5854C368.861 34.2619 364.494 31.9759 360.008 29.8398C355.562 27.7036 351.076 25.605 346.472 23.6563C328.254 15.8988 309.171 9.79019 289.615 5.96766C284.736 5.03076 279.818 4.20629 274.86 3.53173C269.902 2.89464 264.944 2.29502 259.986 1.95774L258.137 1.80783L256.288 1.69541L252.55 1.47055C250.071 1.3956 247.552 1.2457 245.074 1.2457C240.076 1.13327 235.079 1.2457 230.121 1.3956C220.127 1.77036 210.172 2.51988 200.296 3.75658L196.597 4.24376C195.378 4.39367 194.118 4.61852 192.899 4.8059C190.42 5.14318 187.98 5.5929 185.541 6.00513C180.662 6.90455 175.782 7.9164 170.943 9.07815C166.103 10.2774 161.342 11.5516 156.581 13.0131C151.859 14.4747 147.177 16.0861 142.534 17.885C133.326 21.4827 124.355 25.6425 115.856 30.5893C107.357 35.4986 99.291 41.0825 91.775 47.3035C84.2993 53.5245 77.3348 60.3451 71.0785 67.6904C58.4873 82.3809 48.493 98.9827 40.9776 116.521C33.3835 134.06 28.1503 152.498 24.727 171.199C21.3038 189.937 19.6118 208.937 19.3364 227.975C19.2577 232.734 19.297 237.493 19.4151 242.253C19.5331 247.012 19.7299 251.772 20.0053 256.531C20.2807 261.291 20.6742 266.013 21.1464 270.772C21.6579 275.494 22.1694 280.253 22.9564 284.938L22.7596 284.975C21.894 280.291 21.2251 275.569 20.6742 270.809C20.1233 266.088 19.6512 261.328 19.297 256.569C18.9429 251.809 18.6675 247.05 18.4708 242.29C18.274 237.531 18.1953 232.771 18.1953 227.975C18.2347 208.899 19.6905 189.787 22.9957 170.936C26.3009 152.086 31.4555 133.498 38.9708 115.734C46.5256 98.0083 56.5199 81.1442 69.3079 66.3038C75.6822 58.8836 82.686 51.9505 90.319 45.6921C97.953 39.4336 106.137 33.8122 114.754 28.8654C123.371 23.9186 132.461 19.7213 141.786 16.1236C146.469 14.3622 151.19 12.7508 155.991 11.2892C160.791 9.82767 165.631 8.55349 170.51 7.39174C190.026 2.81968 210.094 0.646084 230.121 0.121422C235.119 0.00899478 240.155 -0.0659578 245.152 0.0839456C247.671 0.121421 250.149 0.271326 252.668 0.383754L256.406 0.608608L258.294 0.721035L260.183 0.870939C265.18 1.2457 270.138 1.88279 275.096 2.55735C280.054 3.26939 284.972 4.13134 289.891 5.10571C309.486 9.04067 328.609 15.1867 346.866 23.0192C355.995 26.9167 364.926 31.2639 373.662 35.9483C378.029 38.2718 382.318 40.7078 386.607 43.2186C390.856 45.7295 395.067 48.3154 399.238 50.9761C415.882 61.6193 431.66 73.4242 446.651 86.0535C450.429 89.2015 454.088 92.4244 457.747 95.6848C461.407 98.9452 464.987 102.281 468.568 105.616C475.69 112.324 482.615 119.22 489.344 126.265C496.072 133.311 502.643 140.543 509.057 147.851C512.244 151.524 515.431 155.234 518.539 158.944C521.648 162.692 524.756 166.439 527.786 170.224C539.945 185.365 551.473 200.992 562.451 216.957C573.39 232.921 583.778 249.223 593.615 265.863C598.533 274.145 603.255 282.577 607.859 291.046C612.462 299.516 616.908 308.06 621.001 316.755L620.804 316.98Z" fill="#D6D6D6"></path></g><g opacity="0.5556"><path d="M600.538 317.919C591.488 301.654 581.494 285.915 571.106 270.4C560.718 254.922 549.74 239.782 538.29 224.979C532.585 217.559 526.683 210.288 520.702 203.093C514.721 195.898 508.583 188.777 502.327 181.807C489.775 167.866 476.711 154.337 462.979 141.408L460.421 138.972L457.824 136.573C456.093 134.999 454.362 133.35 452.631 131.776L447.358 127.054L446.02 125.893L444.682 124.731L442.007 122.407C438.465 119.297 434.767 116.336 431.147 113.301L425.599 108.879L422.805 106.668L419.972 104.531C412.496 98.7227 404.745 93.2512 396.875 87.8922L390.934 83.9572C388.927 82.6455 386.92 81.4088 384.913 80.1347L381.884 78.2234C380.861 77.5863 379.838 76.9867 378.814 76.3871L372.676 72.7519L366.42 69.2667C365.358 68.7045 364.335 68.1049 363.272 67.5428L360.085 65.8938L356.898 64.2449C355.835 63.6828 354.773 63.1206 353.711 62.6334L347.258 59.4855L345.644 58.6985L343.992 57.949L340.726 56.4874C338.523 55.513 336.398 54.5012 334.155 53.6018L327.505 50.8286C325.302 49.9291 323.02 49.1047 320.777 48.2427L317.432 46.9685C316.291 46.5563 315.15 46.1815 314.048 45.8068L307.241 43.4833L300.355 41.3846C299.214 41.0474 298.073 40.6726 296.893 40.3728L293.43 39.4359C284.184 36.8501 274.74 34.8638 265.257 33.2149L258.135 32.0906C256.955 31.8658 255.735 31.7533 254.555 31.6034L250.974 31.1912C246.213 30.5541 241.373 30.2543 236.612 29.8421C236.022 29.7671 235.392 29.7671 234.802 29.7296L232.992 29.6547L229.372 29.5048L225.752 29.3549C225.162 29.3174 224.533 29.3174 223.942 29.3174H222.132L214.892 29.2799C212.492 29.3174 210.092 29.3924 207.652 29.4673C198.012 29.6922 188.411 30.4792 178.85 31.4535L171.689 32.3904L168.108 32.8401L164.567 33.4398C162.206 33.852 159.806 34.1893 157.445 34.6015L150.402 36.0256C141.037 38.0493 131.712 40.4103 122.662 43.4833L120.97 44.0454C120.419 44.2328 119.829 44.4202 119.278 44.6076L115.933 45.8443C113.69 46.6687 111.447 47.4557 109.244 48.4301C107.041 49.367 104.837 50.2289 102.634 51.2033L96.181 54.2014C87.642 58.3987 79.4185 63.1206 71.5884 68.4047C63.7582 73.6888 56.3608 79.5725 49.5144 85.9434C42.6285 92.3143 36.2936 99.2099 30.5095 106.518C24.7254 113.825 19.4921 121.508 14.8098 129.49C10.1274 137.473 5.9959 145.755 2.3759 154.262C-1.2441 162.769 -4.31317 171.463 -6.94946 180.27C-9.5464 189.114 -11.7499 198.034 -13.5205 207.065C-15.2912 216.097 -16.5896 225.204 -17.534 234.348C-18.439 243.492 -19.0292 252.673 -19.1866 261.855C-19.2653 266.465 -19.2653 271.037 -19.1079 275.646C-18.9505 280.256 -18.7537 284.828 -18.3209 289.4L-18.5176 289.437C-19.5407 280.293 -19.8555 271.074 -19.8555 261.855C-19.8161 252.636 -19.4226 243.454 -18.5963 234.273C-17.7307 225.091 -16.5503 215.947 -14.8583 206.878C-13.2057 197.809 -11.1203 188.777 -8.52336 179.895C-5.96577 171.014 -2.8967 162.244 0.684002 153.625C4.2646 145.043 8.3961 136.648 13.0785 128.553C22.4039 112.364 34.1294 97.3361 48.0191 84.3694C61.9089 71.4403 78.002 60.6472 95.315 52.2526L101.886 49.2171C104.089 48.2427 106.332 47.3808 108.575 46.4439C110.779 45.4695 113.061 44.72 115.343 43.858L118.727 42.6213C119.278 42.3965 119.868 42.2091 120.458 42.0592L122.189 41.4971C131.357 38.424 140.761 36.0631 150.205 34.0768L157.327 32.6528C159.727 32.2405 162.088 31.8658 164.488 31.491L168.069 30.9289L171.689 30.4792L178.889 29.5797C188.529 28.6803 198.17 27.9308 207.888 27.7809C217.568 27.4061 227.247 27.7809 236.927 28.3805C241.727 28.8302 246.567 29.1675 251.368 29.8796L254.948 30.3293C256.129 30.4792 257.348 30.6291 258.529 30.8539L265.69 32.0531C275.173 33.8145 284.656 35.8757 293.902 38.5365L297.365 39.5108C298.545 39.8107 299.647 40.2229 300.828 40.5602L307.713 42.7338L314.52 45.0947C315.662 45.507 316.803 45.8817 317.904 46.294L321.249 47.5682C323.492 48.4301 325.735 49.2546 327.977 50.154L334.627 52.9272C336.87 53.8266 339.034 54.8759 341.198 55.8503L344.464 57.3493L346.117 58.0989L347.73 58.8859L354.183 62.0338C355.285 62.5585 356.308 63.1206 357.37 63.6453L360.557 65.2942L363.744 66.9432C364.807 67.5053 365.83 68.1049 366.892 68.6671L373.148 72.1523C389.714 81.6712 405.65 92.1644 420.838 103.557L423.71 105.693L426.504 107.867L432.13 112.251C435.79 115.25 439.528 118.173 443.108 121.246L445.823 123.532L447.201 124.693L448.538 125.855L453.89 130.502C455.66 132.076 457.392 133.65 459.162 135.224L461.799 137.585L464.396 140.021C471.321 146.429 478.049 153.063 484.66 159.808C491.27 166.554 497.644 173.45 503.94 180.458C516.492 194.473 528.453 208.977 539.825 223.855C551.196 238.732 561.978 254.023 572.247 269.65C577.402 277.445 582.32 285.352 587.121 293.335C591.921 301.317 596.564 309.374 600.892 317.619L600.538 317.919Z" fill="#FCFCFC"></path></g><g opacity="0.6111"><path d="M580.233 318.889C570.711 303.561 560.244 288.833 549.384 274.368C538.524 259.902 527.074 245.849 515.152 232.132C491.346 204.738 465.456 178.954 437.401 155.532C430.397 149.648 423.236 143.989 415.956 138.405L410.448 134.283L409.071 133.271L407.654 132.259L404.86 130.236C401.162 127.537 397.345 124.951 393.568 122.366C391.679 121.091 389.751 119.817 387.823 118.581L384.951 116.669L382.039 114.833C380.071 113.596 378.143 112.36 376.176 111.16L370.234 107.6C368.267 106.401 366.26 105.277 364.254 104.152L361.263 102.428C360.28 101.866 359.257 101.304 358.233 100.742L352.135 97.4816L350.6 96.6571L349.065 95.8702L345.957 94.2962C329.47 85.9391 312.275 78.8561 294.648 73.0474L287.998 70.9862C286.896 70.6489 285.795 70.2742 284.653 69.9743L281.309 69.0374L277.964 68.1006C276.823 67.8007 275.722 67.4635 274.58 67.2011L267.813 65.5522C265.57 64.9901 263.288 64.5029 261.006 64.0532L257.582 63.3411C256.441 63.1163 255.3 62.8539 254.159 62.6666C249.555 61.8796 244.991 60.9801 240.387 60.3805C231.18 58.9564 221.894 58.2069 212.569 57.6073L205.565 57.345C204.384 57.3075 203.243 57.2326 202.063 57.2326H198.561L191.557 57.1951L184.553 57.3825C179.871 57.4574 175.228 57.7947 170.585 58.0195C168.263 58.132 165.942 58.3568 163.62 58.5442L156.656 59.1438L149.73 59.9683L146.268 60.3805C145.127 60.5304 143.986 60.7178 142.805 60.8677L135.919 61.8796C133.637 62.2543 131.355 62.704 129.073 63.1163L125.65 63.7534C124.509 63.9782 123.368 64.2405 122.227 64.4654L115.419 65.9644C110.934 67.1262 106.409 68.1755 101.962 69.5246L98.618 70.499C98.067 70.6489 97.516 70.7988 96.965 70.9862L95.313 71.5109L88.702 73.6845C84.3741 75.2959 80.0065 76.8324 75.757 78.6313L72.5698 79.9429C72.019 80.1678 71.5074 80.3926 70.9959 80.655L69.422 81.367L66.2742 82.7911C65.2118 83.2783 64.1494 83.728 63.1657 84.2526L56.9882 87.3257C54.9814 88.4125 52.9747 89.5367 50.9286 90.6235C42.9411 95.1581 35.2683 100.18 27.989 105.651C20.7097 111.123 13.7845 117.081 7.33152 123.452C0.87852 129.823 -5.10234 136.644 -10.5717 143.764C-21.589 158.043 -30.5996 173.707 -37.7215 190.084C-41.2628 198.292 -44.45 206.649 -47.1256 215.156C-47.7552 217.292 -48.4634 219.391 -49.0536 221.564L-49.9586 224.787L-50.8243 228.01C-51.4145 230.146 -51.8867 232.32 -52.4375 234.493L-53.1851 237.754C-53.4212 238.841 -53.6573 239.927 -53.8934 241.014C-55.7034 249.709 -57.1593 258.515 -58.1429 267.36C-58.6545 271.782 -59.0479 276.204 -59.284 280.664C-59.5595 285.086 -59.7168 289.545 -59.6381 294.005H-59.8349C-60.1497 285.086 -59.6381 276.166 -58.8118 267.322C-57.9462 258.44 -56.6477 249.596 -54.9164 240.864C-51.4538 223.363 -46.3387 206.087 -39.2561 189.56C-32.1735 173.033 -23.2023 157.181 -12.2243 142.677C-1.24628 128.174 11.8565 115.095 26.5725 103.965C41.3278 92.8721 57.6177 83.653 74.8913 76.645C79.1802 74.8087 83.5871 73.2722 87.994 71.6982L94.644 69.5246L96.296 69C96.847 68.8126 97.438 68.6627 97.988 68.5128L101.372 67.5384C105.858 66.1893 110.422 65.14 114.947 64.0157L121.794 62.5541C122.935 62.3293 124.076 62.0669 125.217 61.8421L128.68 61.2425C131.001 60.8302 133.283 60.418 135.605 60.0432L142.569 59.0314C143.71 58.8815 144.891 58.6941 146.032 58.5442L149.534 58.1695L156.498 57.3825L163.502 56.8203C165.824 56.6329 168.185 56.4081 170.506 56.3331C175.188 56.1083 179.871 55.8085 184.553 55.771L191.557 55.6211L198.6 55.696L202.102 55.7335C203.283 55.7335 204.424 55.8459 205.604 55.8834L212.608 56.2207C221.933 56.8953 231.259 57.7947 240.505 59.2937C258.999 62.0295 277.138 66.7139 294.844 72.4477C297.048 73.1973 299.251 73.9843 301.455 74.7338L304.76 75.8955L308.026 77.1322L314.558 79.6056L321.011 82.2664C322.073 82.7161 323.175 83.1284 324.237 83.6156L327.424 85.0022C329.549 85.9391 331.674 86.8385 333.799 87.8129C337.969 89.7991 342.219 91.7103 346.311 93.8465L349.42 95.383L350.954 96.17L352.489 96.9944L358.627 100.217C359.65 100.742 360.673 101.304 361.657 101.866L364.686 103.553C366.693 104.677 368.739 105.801 370.707 106.963L376.688 110.448C378.655 111.647 380.622 112.847 382.59 114.046L385.541 115.845L388.452 117.719C390.38 118.955 392.348 120.192 394.276 121.466C398.093 124.052 401.949 126.563 405.687 129.261L408.52 131.247L409.936 132.222L411.313 133.234L416.901 137.281C418.75 138.63 420.56 140.054 422.409 141.441L425.164 143.539L427.879 145.676L433.269 149.948L438.621 154.295C452.786 165.95 466.321 178.28 479.267 191.171C485.72 197.617 492.094 204.175 498.311 210.846C504.489 217.517 510.548 224.337 516.49 231.233C528.333 245.024 539.626 259.265 550.328 273.843C555.68 281.151 560.913 288.534 565.949 296.029C570.986 303.524 575.904 311.094 580.469 318.889H580.233Z" fill="#F3F3F3"></path></g><g opacity="0.6667"><path d="M559.968 319.868C549.895 305.515 538.878 291.798 527.467 278.382C516.056 264.966 504.095 252.036 491.661 239.445C485.483 233.149 479.109 227.003 472.656 220.969C466.203 214.935 459.671 208.977 452.943 203.168C451.29 201.706 449.559 200.282 447.906 198.858L445.388 196.722L442.791 194.549C441.099 193.124 439.368 191.7 437.676 190.314L432.482 186.154C425.517 180.645 418.513 175.211 411.313 169.964C396.951 159.471 382.078 149.578 366.653 140.546C362.837 138.26 358.902 136.086 355.006 133.875L349.104 130.69L346.153 129.116L343.163 127.579C341.156 126.567 339.189 125.555 337.182 124.544L331.122 121.621C329.116 120.646 327.07 119.709 325.024 118.772C322.977 117.873 320.931 116.899 318.885 116.037C314.754 114.275 310.622 112.476 306.412 110.865L303.264 109.628C302.202 109.216 301.179 108.804 300.117 108.429L293.782 106.106L292.208 105.543L290.594 105.019L287.407 103.932L284.22 102.845L282.607 102.32L280.994 101.833L274.541 99.8471L272.927 99.3599L271.314 98.9102L268.048 98.0107L264.782 97.1113L263.169 96.6616L261.517 96.2494L254.945 94.6004L253.293 94.1882L251.64 93.8135L248.335 93.1014L245.03 92.3894L243.377 92.0146C242.826 91.9022 242.276 91.7898 241.725 91.7148C237.278 90.8903 232.832 89.9909 228.386 89.3538L225.041 88.8292C223.94 88.6418 222.798 88.4544 221.697 88.342L214.968 87.48C213.827 87.3301 212.725 87.1802 211.584 87.0678L208.201 86.7305C205.958 86.5057 203.715 86.2808 201.433 86.0934L194.665 85.6437L191.281 85.4189L187.897 85.3064L181.129 85.0816C178.887 85.0441 176.604 85.0441 174.362 85.0441C169.837 84.9691 165.312 85.1565 160.787 85.2315C159.646 85.2689 158.544 85.269 157.403 85.3064L154.019 85.4938L147.251 85.8311C146.11 85.8686 145.008 85.981 143.867 86.0559L140.483 86.3183L137.099 86.5806C135.958 86.6556 134.857 86.7305 133.715 86.8804L126.987 87.5925C125.846 87.7049 124.744 87.8173 123.603 87.9672L120.259 88.4169L113.373 89.2414L106.684 90.3282L103.339 90.8903C102.237 91.0777 101.136 91.3026 100.034 91.5274L93.384 92.8016L86.7738 94.2632L83.4686 95.0127L80.2027 95.8371C71.4676 97.9733 62.8504 100.672 54.3907 103.632C52.2659 104.419 50.1805 105.131 48.0558 105.956L41.7995 108.429C41.2879 108.654 40.7371 108.841 40.2256 109.066L38.691 109.741L35.6219 111.09C34.5988 111.54 33.5758 111.989 32.5528 112.439L29.523 113.863C21.4567 117.686 13.5479 121.92 6.03251 126.605C-1.52219 131.289 -8.80155 136.386 -15.7661 141.895C-22.6912 147.404 -29.2623 153.288 -35.4792 159.546C-47.8737 172.063 -58.655 186.004 -67.6656 200.919C-68.8067 202.756 -69.869 204.667 -70.9708 206.541C-71.5216 207.478 -72.0332 208.452 -72.5447 209.389L-74.1186 212.237C-75.1023 214.186 -76.1253 216.097 -77.109 218.046C-78.0533 219.995 -79.037 221.943 -79.942 223.93L-81.3192 226.89L-82.6177 229.888C-83.5227 231.874 -84.3096 233.898 -85.1359 235.884C-86.7098 239.932 -88.2837 243.979 -89.6609 248.064C-92.4546 256.271 -94.8548 264.591 -96.7828 273.023C-97.7665 277.22 -98.5928 281.455 -99.3011 285.727C-100.009 290 -100.639 294.272 -100.954 298.581H-101.15C-100.914 294.272 -100.363 289.962 -99.7339 285.69C-99.1043 281.418 -98.3174 277.145 -97.4124 272.911C-95.6024 264.441 -93.3596 256.046 -90.6446 247.802C-89.3068 243.679 -87.8116 239.594 -86.2376 235.51C-85.4113 233.486 -84.6637 231.462 -83.7981 229.439L-82.539 226.44L-81.2012 223.442C-80.3355 221.456 -79.3518 219.47 -78.4468 217.521C-77.5025 215.535 -76.4794 213.624 -75.4958 211.638C-74.4727 209.726 -73.4497 207.778 -72.3873 205.866C-71.2856 203.955 -70.2625 202.044 -69.0821 200.17C-60.1108 185.105 -49.3689 170.939 -36.9351 158.234C-24.5406 145.53 -10.4148 134.325 4.81271 124.843C12.4462 120.084 20.3944 115.849 28.5393 111.989C36.7236 108.167 45.0653 104.644 53.6431 101.721C62.1815 98.7603 70.8774 96.0995 79.6912 93.9634L82.9964 93.1389L86.3016 92.3894L92.951 90.9278L99.64 89.6536C100.742 89.4288 101.883 89.2039 102.985 89.0165L106.369 88.4919L113.058 87.3676L119.826 86.5057L123.21 86.0559C124.351 85.906 125.452 85.8311 126.594 85.7187L133.361 85.0441C134.502 84.9317 135.644 84.8567 136.745 84.7818L140.129 84.5569L143.513 84.3321C144.654 84.2571 145.795 84.1447 146.897 84.1072L153.704 83.8074L157.088 83.6575C158.229 83.62 159.37 83.62 160.511 83.5825C165.036 83.5076 169.6 83.3577 174.125 83.4701C176.408 83.5076 178.69 83.5076 180.933 83.5825L187.74 83.8824L191.124 84.0323L194.508 84.2946L201.315 84.8192C203.557 85.0441 205.84 85.3064 208.082 85.5313L211.466 85.906C212.607 86.0185 213.709 86.2058 214.85 86.3557L221.579 87.2926C222.72 87.4425 223.822 87.6299 224.923 87.8173L228.268 88.3795C232.753 89.054 237.2 89.9909 241.646 90.8903C250.499 92.8016 259.313 94.8628 268.009 97.3737C285.44 102.246 302.399 108.467 318.964 115.549C327.227 119.147 335.411 122.857 343.399 126.942L346.429 128.441L349.419 130.015L355.4 133.126C359.335 135.299 363.309 137.398 367.165 139.684C374.956 144.106 382.589 148.828 390.105 153.625L395.731 157.298L401.279 161.045C402.184 161.682 403.129 162.282 404.034 162.919L406.788 164.83C408.598 166.104 410.447 167.379 412.257 168.69L417.687 172.625C419.497 173.937 421.268 175.286 423.038 176.635L425.714 178.659L428.35 180.72C430.121 182.107 431.892 183.456 433.623 184.842C440.587 190.389 447.434 196.085 454.123 201.931C467.541 213.586 480.407 225.803 492.762 238.47C505.118 251.137 516.922 264.291 528.215 277.82C533.881 284.566 539.35 291.461 544.662 298.469C549.974 305.477 555.168 312.56 560.008 319.868H559.968Z" fill="#D5D5D5"></path></g><g opacity="0.7222"><path d="M539.665 320.844C528.923 307.502 517.276 294.835 505.275 282.543C493.235 270.251 480.683 258.446 467.737 247.054C441.768 224.268 414.028 203.394 384.557 184.881C380.897 182.558 377.159 180.309 373.461 178.061C369.683 175.849 365.985 173.601 362.168 171.502C354.613 167.193 346.901 163.108 339.11 159.173L333.247 156.25L327.345 153.439L324.394 152.052L321.404 150.703L315.423 148.005L309.363 145.419C308.34 145.007 307.357 144.557 306.334 144.145L303.304 142.908C301.258 142.084 299.251 141.259 297.205 140.472L291.067 138.149C290.044 137.774 289.021 137.362 287.998 137.024L284.889 135.938C282.804 135.226 280.758 134.476 278.672 133.764C274.501 132.415 270.331 130.991 266.12 129.792C263.996 129.155 261.91 128.517 259.785 127.918L253.411 126.194C252.349 125.894 251.286 125.594 250.224 125.332L247.037 124.545L240.623 122.971L234.17 121.547L230.944 120.835L227.717 120.198L221.225 118.961C219.061 118.586 216.897 118.249 214.693 117.874C210.365 117.087 205.997 116.563 201.63 115.926C200.528 115.776 199.426 115.626 198.364 115.513L195.098 115.139L191.832 114.764L190.18 114.576C189.629 114.502 189.078 114.464 188.527 114.427L181.956 113.864C180.854 113.789 179.752 113.64 178.651 113.602L175.345 113.415L168.735 113.04L162.125 112.853C157.718 112.665 153.311 112.74 148.904 112.703H147.251L145.599 112.74L142.293 112.815L135.683 112.965C133.48 113.04 131.276 113.152 129.073 113.265L125.767 113.415C124.666 113.452 123.564 113.49 122.462 113.602L115.852 114.052L112.547 114.277L109.241 114.576L102.67 115.176C101.569 115.251 100.467 115.401 99.4052 115.551L96.1392 115.926L92.8732 116.3C91.7712 116.413 90.6692 116.563 89.6072 116.713L83.0755 117.649C80.9114 117.949 78.7473 118.324 76.5832 118.699C74.4191 119.074 72.2549 119.411 70.0908 119.823L63.6378 121.097C62.5754 121.322 61.4737 121.509 60.4113 121.734L57.1848 122.446C48.607 124.32 40.1473 126.606 31.7269 129.155C15.0042 134.289 -1.36439 140.697 -16.828 148.642C-47.8733 164.382 -75.456 186.305 -97.0185 212.838C-102.409 219.471 -107.406 226.367 -112.049 233.487C-116.692 240.608 -120.903 247.99 -124.759 255.523C-128.575 263.093 -132.038 270.813 -134.989 278.721C-136.484 282.693 -137.822 286.666 -139.081 290.713C-140.301 294.76 -141.442 298.808 -142.229 302.93L-142.426 302.893C-141.678 298.733 -140.655 294.648 -139.514 290.563C-138.373 286.516 -137.035 282.468 -135.619 278.496C-134.202 274.523 -132.668 270.551 -131.015 266.653C-129.362 262.756 -127.592 258.896 -125.703 255.073C-118.188 239.821 -109.019 225.28 -98.2776 211.826C-87.5357 198.41 -75.2592 186.08 -61.763 175.137C-54.9952 169.666 -47.952 164.569 -40.594 159.81C-33.2753 155.05 -25.6419 150.703 -17.8511 146.693L-14.9393 145.194C-13.9556 144.707 -12.972 144.257 -11.9883 143.77L-8.99785 142.346C-8.01416 141.859 -7.03048 141.409 -6.00743 140.959L0.0127106 138.299L6.11162 135.788C8.11832 134.926 10.2038 134.176 12.2892 133.427L15.3976 132.265C16.4207 131.853 17.4831 131.553 18.5061 131.178C20.5915 130.466 22.677 129.754 24.7624 129.042L31.0974 127.093C39.5571 124.583 48.0955 122.296 56.752 120.46L59.9785 119.748C61.0409 119.523 62.1426 119.336 63.2444 119.111L69.7367 117.837C71.9008 117.425 74.1043 117.087 76.2684 116.75C78.4325 116.375 80.636 116.001 82.8394 115.738C100.349 113.19 118.016 111.766 135.683 111.279C153.35 110.791 171.096 111.466 188.684 113.265C206.273 115.064 223.664 118.212 240.859 122.184L247.273 123.796L250.46 124.582C251.522 124.845 252.585 125.145 253.647 125.444L260.022 127.206C262.146 127.805 264.232 128.48 266.356 129.08L269.504 130.016C270.567 130.316 271.59 130.691 272.652 131.028L278.948 133.052C281.033 133.727 283.119 134.476 285.165 135.188L288.273 136.275C289.296 136.612 290.319 137.024 291.382 137.399C324.434 149.392 355.951 165.019 385.658 183.307C389.396 185.593 393.056 187.954 396.715 190.315C400.335 192.714 403.994 195.112 407.575 197.585C411.195 200.021 414.697 202.57 418.278 205.081C421.78 207.629 425.321 210.177 428.783 212.801C435.709 218.01 442.555 223.369 449.244 228.878C455.933 234.387 462.504 240.008 468.997 245.742C481.942 257.21 494.337 269.239 506.259 281.681C509.249 284.792 512.2 287.94 515.073 291.088C517.945 294.273 520.817 297.459 523.65 300.719C529.277 307.202 534.825 313.761 539.98 320.581L539.665 320.844Z" fill="#EEEEEE"></path></g><g opacity="0.7778"><path d="M519.361 321.813C507.872 309.521 495.477 298.053 482.807 286.885C470.098 275.755 456.877 265.187 443.302 255.031C429.727 244.875 415.759 235.243 401.397 226.137C387.035 217.03 372.319 208.448 357.249 200.466C327.148 184.464 295.513 170.86 262.618 160.779C260.572 160.142 258.526 159.505 256.44 158.905L250.224 157.144C249.201 156.844 248.138 156.544 247.115 156.282L244.007 155.457L237.75 153.846L231.455 152.347L228.307 151.597L225.159 150.923L218.824 149.574L212.489 148.337C195.57 145.077 178.414 142.94 161.219 141.666C156.93 141.292 152.602 141.142 148.313 140.917C146.149 140.804 143.985 140.767 141.86 140.692L135.407 140.542H128.954C126.79 140.542 124.626 140.505 122.501 140.579L116.048 140.692L112.822 140.767L109.595 140.879C92.3608 141.516 75.1658 142.94 58.089 145.226L51.6753 146.201L48.4882 146.688C47.4258 146.838 46.3634 147.063 45.301 147.213L38.9267 148.3C36.8019 148.674 34.7165 149.124 32.5917 149.536L29.4439 150.136C28.3815 150.323 27.3585 150.586 26.2961 150.81L20.0005 152.197C17.9151 152.684 15.8297 153.209 13.7442 153.696L10.5964 154.446L7.48799 155.27C-9.11673 159.655 -25.4066 165.126 -41.1063 171.797L-44.0574 173.071L-45.5133 173.708L-46.9691 174.383L-52.7926 177.043L-58.5373 179.854C-59.521 180.304 -60.426 180.829 -61.3703 181.278L-64.2034 182.74C-71.7581 186.675 -79.1161 190.947 -86.2774 195.482C-100.6 204.588 -114.057 214.932 -126.333 226.399C-132.471 232.133 -138.373 238.167 -143.921 244.425C-149.43 250.721 -154.703 257.242 -159.542 264.025C-160.762 265.711 -161.943 267.435 -163.123 269.159C-164.264 270.883 -165.445 272.607 -166.546 274.368C-168.789 277.891 -170.953 281.451 -172.96 285.049C-175.006 288.684 -176.895 292.357 -178.705 296.104C-180.475 299.852 -182.167 303.637 -183.544 307.534L-183.741 307.459C-183.112 305.473 -182.364 303.562 -181.577 301.613C-180.79 299.702 -179.964 297.791 -179.138 295.879C-177.406 292.094 -175.557 288.384 -173.59 284.712C-171.622 281.039 -169.537 277.441 -167.333 273.881C-166.232 272.082 -165.13 270.358 -163.989 268.597C-162.808 266.873 -161.667 265.112 -160.447 263.388C-150.886 249.634 -139.829 236.817 -127.553 225.2C-115.276 213.545 -101.82 203.014 -87.4578 193.758C-80.2965 189.111 -72.8598 184.801 -65.3051 180.829L-62.4327 179.33C-61.4884 178.842 -60.5441 178.318 -59.5604 177.868L-53.7763 175.02L-47.9135 172.322L-46.4576 171.647L-44.9624 171.01L-42.0113 169.736L-39.0603 168.462L-36.0698 167.262L-33.0794 166.063L-31.5842 165.463L-30.089 164.901L-24.0295 162.653L-17.9306 160.554C-9.74629 157.818 -1.52262 155.27 6.85838 153.134L10.0062 152.309L13.154 151.56C15.2395 151.073 17.3642 150.548 19.4497 150.061L25.7846 148.712C26.847 148.487 27.9094 148.225 28.9718 148.037L32.1589 147.438C34.2837 147.025 36.4084 146.613 38.5332 146.238L44.9469 145.152C46.0093 144.964 47.0717 144.777 48.134 144.627L51.3606 144.177L57.7742 143.24C74.9298 140.992 92.2038 139.68 109.517 139.193L112.743 139.08L115.97 139.043L122.501 139.08C124.665 139.043 126.829 139.08 128.994 139.118L135.486 139.193L141.978 139.418C144.142 139.493 146.307 139.568 148.471 139.718C152.799 139.98 157.127 140.205 161.416 140.617L167.869 141.179L174.322 141.854L177.549 142.191C178.611 142.303 179.673 142.453 180.775 142.603L187.189 143.428C188.251 143.54 189.313 143.727 190.376 143.877L193.563 144.365L196.75 144.852C197.813 145.002 198.875 145.189 199.937 145.376C204.187 146.126 208.436 146.8 212.686 147.662L219.021 148.899L225.356 150.286L228.504 150.96L231.651 151.71L237.947 153.209C246.289 155.345 254.631 157.556 262.854 160.104C266.986 161.304 271.078 162.653 275.17 163.964C277.216 164.639 279.262 165.351 281.269 166.026C283.315 166.7 285.361 167.412 287.368 168.124L293.427 170.298L299.447 172.584L302.477 173.708L305.468 174.907L311.448 177.306L317.39 179.779C318.374 180.191 319.357 180.604 320.341 181.016L323.292 182.29C325.259 183.152 327.227 184.014 329.194 184.876L335.057 187.537C337.024 188.399 338.913 189.373 340.88 190.272C342.809 191.209 344.737 192.109 346.665 193.083L352.409 195.931L358.115 198.854C365.709 202.827 373.224 206.912 380.582 211.221C387.98 215.531 395.298 219.916 402.459 224.525C409.66 229.135 416.743 233.857 423.707 238.691C430.711 243.563 437.558 248.585 444.325 253.682C457.861 263.95 470.924 274.743 483.555 285.986C489.85 291.607 496.028 297.378 502.048 303.3C508.068 309.221 513.971 315.254 519.519 321.55L519.361 321.813Z" fill="#E9E9E9"></path></g><g opacity="0.8333"><path d="M499.097 322.751C486.742 311.621 473.561 301.39 460.104 291.534C453.375 286.624 446.529 281.827 439.604 277.18C432.679 272.533 425.635 267.999 418.513 263.577C411.392 259.155 404.191 254.882 396.912 250.722C389.632 246.563 382.274 242.515 374.877 238.618C367.44 234.72 359.925 230.935 352.37 227.3C344.776 223.665 337.143 220.18 329.43 216.769C321.718 213.397 313.928 210.174 306.097 207.063L300.195 204.777L297.244 203.653L294.293 202.566C292.326 201.854 290.319 201.104 288.352 200.392L282.371 198.294C266.396 192.785 250.184 187.913 233.737 183.828C200.842 175.696 167.122 170.637 133.204 168.95L126.83 168.688L123.642 168.575L120.455 168.5L114.081 168.351C111.956 168.313 109.831 168.351 107.707 168.313C105.582 168.313 103.457 168.276 101.332 168.313L94.9582 168.425C90.7092 168.463 86.4592 168.65 82.249 168.8L79.0618 168.913L75.8747 169.063L69.5397 169.4C67.4149 169.475 65.2901 169.7 63.2047 169.812L56.8698 170.262L50.5348 170.824C48.41 171.011 46.3246 171.161 44.1998 171.424C39.9896 171.873 35.7795 172.285 31.5693 172.848L25.2737 173.635L18.978 174.534L15.8302 174.984L12.6824 175.508L6.42613 176.558C4.34073 176.933 2.25532 177.307 0.169922 177.719L-2.93857 178.282C-3.96159 178.469 -5.024 178.694 -6.04703 178.919L-12.2639 180.193C-14.3494 180.643 -16.3955 181.13 -18.4415 181.58L-21.55 182.292L-24.6191 183.041L-30.7574 184.578C-34.8495 185.664 -38.9417 186.714 -42.9945 187.913C-47.0473 189.037 -51.1001 190.311 -55.1135 191.548C-59.127 192.86 -63.1404 194.171 -67.1145 195.595C-83.0503 201.142 -98.5139 207.775 -113.506 215.345C-128.458 222.915 -142.859 231.535 -156.394 241.241C-163.162 246.113 -169.733 251.172 -176.108 256.531C-177.721 257.843 -179.255 259.229 -180.829 260.579C-182.364 261.965 -183.938 263.352 -185.433 264.738C-188.502 267.549 -191.453 270.435 -194.365 273.358C-200.149 279.242 -205.697 285.388 -210.852 291.796C-213.449 295.019 -215.927 298.279 -218.288 301.652C-219.469 303.339 -220.61 305.025 -221.751 306.749C-222.853 308.473 -223.954 310.197 -224.938 311.995L-225.135 311.921C-224.19 310.084 -223.128 308.323 -222.066 306.599C-221.003 304.838 -219.862 303.114 -218.721 301.427C-216.4 298.017 -213.999 294.682 -211.442 291.421C-206.405 284.9 -200.936 278.642 -195.191 272.683C-183.662 260.729 -170.992 249.786 -157.457 239.929C-143.921 230.073 -129.52 221.304 -114.529 213.584C-107.052 209.724 -99.3796 206.126 -91.6281 202.791C-83.8766 199.418 -75.9678 196.382 -67.9802 193.534C-64.0061 192.073 -59.9533 190.799 -55.9398 189.449C-51.887 188.213 -47.8342 186.939 -43.7421 185.777C-39.6893 184.578 -35.5578 183.528 -31.4656 182.441L-25.288 180.942L-22.1796 180.193L-19.0711 179.518C-16.9857 179.069 -14.9396 178.581 -12.8542 178.132L-6.59789 176.858C-5.53552 176.67 -4.51248 176.445 -3.48944 176.258L-0.341675 175.696C1.74383 175.321 3.82923 174.946 5.95403 174.572L12.2496 173.56L15.3974 173.072L18.5452 172.623L24.8802 171.723L31.2151 170.936C35.4253 170.374 39.6749 169.999 43.8851 169.55C46.0098 169.325 48.1346 169.175 50.2594 168.988L56.6337 168.463L63.008 168.051C65.1328 167.938 67.2576 167.751 69.3823 167.676L75.7566 167.376L78.9438 167.226L82.131 167.151C99.1292 166.627 116.166 166.777 133.165 167.788C150.163 168.763 167.082 170.712 183.844 173.222C185.93 173.522 188.055 173.859 190.14 174.234L196.436 175.284L202.692 176.445L205.84 177.045C206.863 177.232 207.925 177.457 208.948 177.682L215.204 178.956C217.29 179.368 219.336 179.856 221.421 180.305C225.553 181.167 229.684 182.217 233.816 183.191C234.839 183.416 235.862 183.678 236.885 183.94L239.954 184.727C242 185.252 244.086 185.739 246.092 186.301L252.23 187.95C254.277 188.475 256.323 189.112 258.329 189.674C262.421 190.799 266.474 192.073 270.527 193.272C272.573 193.872 274.58 194.546 276.587 195.183C278.593 195.82 280.639 196.457 282.607 197.132L288.627 199.156C290.634 199.83 292.601 200.542 294.608 201.254L297.598 202.304L300.589 203.39L306.53 205.602C314.439 208.637 322.269 211.748 330.06 215.083C361.105 228.387 390.931 244.239 419.34 262.115C433.544 271.072 447.316 280.591 460.694 290.597C467.383 295.581 473.954 300.753 480.368 306.037C486.782 311.358 493.117 316.755 499.137 322.489L499.097 322.751Z" fill="#CACACA"></path></g><g opacity="0.8889"><path d="M478.834 323.72C465.495 313.939 451.448 305.132 437.165 296.663C422.882 288.231 408.244 280.323 393.371 272.866C385.934 269.156 378.419 265.558 370.864 262.073C363.309 258.587 355.676 255.215 348.003 251.992C340.291 248.769 332.579 245.621 324.788 242.623C316.997 239.662 309.167 236.739 301.258 234.003C285.48 228.494 269.505 223.473 253.333 219.05C237.2 214.591 220.832 210.768 204.345 207.545C187.858 204.36 171.214 201.849 154.531 199.975C152.446 199.75 150.36 199.525 148.275 199.301C146.189 199.076 144.104 198.851 142.018 198.663C137.848 198.326 133.637 197.914 129.467 197.652L123.171 197.239L116.875 196.902C112.665 196.64 108.494 196.527 104.284 196.377C103.222 196.34 102.199 196.302 101.136 196.265L97.9879 196.228L91.6929 196.115C89.6069 196.078 87.483 196.115 85.3972 196.115C83.3118 196.115 81.1869 196.078 79.1015 196.115L66.5103 196.415L60.2147 196.565L57.067 196.64L53.9191 196.79L41.3279 197.427L35.0322 197.764L28.7366 198.289L16.1848 199.301C15.1224 199.376 14.0993 199.45 13.0369 199.563L9.88913 199.9L3.63284 200.612L-2.62347 201.324C-4.70887 201.587 -6.79425 201.774 -8.8797 202.074L-21.3529 203.873L-24.4614 204.322C-25.4844 204.472 -26.5468 204.622 -27.5698 204.81L-33.7474 205.896L-39.925 206.983L-43.0335 207.545C-44.0565 207.733 -45.1189 207.883 -46.1419 208.107L-58.4577 210.693L-61.5268 211.33C-62.0384 211.443 -62.5499 211.555 -63.0614 211.668L-64.596 212.042L-70.6948 213.504L-76.7937 214.965L-79.8628 215.715L-82.8926 216.539L-95.0117 219.875C-111.065 224.559 -126.883 229.956 -142.386 236.139C-157.889 242.323 -172.999 249.331 -187.557 257.313C-202.116 265.258 -216.202 274.065 -229.502 283.846C-236.112 288.793 -242.565 293.89 -248.743 299.324C-250.277 300.673 -251.851 302.022 -253.307 303.446L-255.55 305.545L-257.753 307.681C-260.665 310.566 -263.537 313.489 -266.174 316.6L-266.331 316.488C-263.773 313.302 -260.98 310.304 -258.107 307.343L-255.943 305.17L-253.74 303.034C-252.284 301.572 -250.749 300.223 -249.215 298.836C-243.116 293.29 -236.742 288.043 -230.171 283.022C-216.95 273.091 -202.981 264.021 -188.383 255.927C-173.825 247.832 -158.676 240.674 -143.173 234.34C-127.67 228.007 -111.774 222.573 -95.6806 217.814L-83.5222 214.478L-80.4924 213.654L-77.4233 212.904L-71.285 211.443C-63.1401 209.344 -54.8771 207.808 -46.6141 206.084C-45.5911 205.859 -44.5287 205.709 -43.5056 205.522L-40.3972 204.997L-34.1803 203.91L-27.9633 202.823C-26.9403 202.636 -25.8779 202.486 -24.8549 202.336L-21.7464 201.886L-9.23383 200.125C-7.14842 199.788 -5.06297 199.638 -2.97757 199.376L3.31805 198.701L9.61365 198.026L12.7615 197.689C13.8238 197.577 14.8469 197.502 15.9093 197.427L28.5005 196.452L34.7961 196.003L41.0917 195.703L53.7224 195.141L56.8701 194.991L60.0179 194.953L66.3529 194.878L78.9835 194.729C81.1083 194.729 83.1937 194.766 85.3184 194.766C87.4429 194.803 89.5289 194.803 91.6539 194.841L97.9489 195.028L101.097 195.103C102.159 195.141 103.182 195.178 104.245 195.253C121.086 195.928 137.848 197.314 154.57 199.226L160.827 200.013L163.974 200.387L167.083 200.8L173.339 201.662C175.425 201.961 177.51 202.299 179.556 202.598C183.727 203.198 187.858 203.91 191.99 204.622C194.075 204.959 196.121 205.334 198.207 205.709C200.292 206.084 202.338 206.458 204.424 206.833C208.555 207.658 212.687 208.407 216.779 209.269L222.956 210.543L229.095 211.892C231.141 212.342 233.187 212.829 235.233 213.279L241.371 214.741C245.424 215.752 249.516 216.727 253.569 217.814C269.82 222.048 285.873 226.883 301.77 232.242C309.718 234.94 317.587 237.788 325.418 240.786C333.248 243.784 340.999 246.895 348.711 250.155C364.096 256.676 379.245 263.759 394.119 271.292C408.992 278.862 423.511 286.994 437.755 295.576C444.877 299.886 451.841 304.345 458.727 308.955C465.613 313.564 472.42 318.324 478.913 323.383L478.834 323.72Z" fill="#D9D9D9"></path></g><g opacity="0.9444"><path d="M458.53 324.694C444.128 316.487 429.176 309.254 414.067 302.321C398.957 295.388 383.572 289.055 368.03 283.059C336.985 271.066 305.153 260.91 272.888 252.253C270.881 251.691 268.835 251.204 266.828 250.679L260.769 249.143L254.709 247.606C252.702 247.082 250.656 246.632 248.61 246.145L236.412 243.297L224.136 240.673C222.09 240.261 220.044 239.774 217.998 239.399L211.82 238.237C207.689 237.45 203.597 236.664 199.465 235.914L187.071 233.853L180.854 232.841L174.637 231.979L162.203 230.255C158.032 229.768 153.861 229.281 149.73 228.831L143.473 228.119L141.9 227.932L140.326 227.782L137.178 227.519L124.665 226.433L121.517 226.17L118.37 225.983L112.113 225.571C107.943 225.346 103.732 225.046 99.5609 224.859L87.0099 224.446L80.7139 224.222L79.14 224.184H77.5661L74.4182 224.147C40.8941 223.772 7.33064 225.158 -25.9968 228.344L-29.1053 228.606C-30.1677 228.681 -31.1906 228.831 -32.2137 228.943L-38.47 229.656L-44.7263 230.368L-47.8348 230.742L-49.4087 230.93L-50.9825 231.155L-63.4164 232.878L-66.5249 233.328C-67.5479 233.478 -68.6103 233.59 -69.6333 233.778L-75.8109 234.79L-81.9885 235.802L-85.0969 236.326C-86.12 236.476 -87.143 236.664 -88.2054 236.851L-100.521 239.174C-104.653 239.886 -108.705 240.823 -112.798 241.685C-116.89 242.585 -120.982 243.372 -125.035 244.384L-137.232 247.269L-149.351 250.417L-152.381 251.204C-153.404 251.466 -154.388 251.766 -155.372 252.066L-161.392 253.79L-167.412 255.514L-173.393 257.388C-189.329 262.297 -205.028 267.843 -220.453 274.139C-235.837 280.398 -250.986 287.331 -265.624 295.051C-272.903 298.986 -280.143 303.033 -287.186 307.343C-288.957 308.43 -290.688 309.517 -292.419 310.641L-295.016 312.327L-297.574 314.051C-300.997 316.375 -304.381 318.736 -307.568 321.284L-307.726 321.134C-304.538 318.511 -301.233 316.075 -297.849 313.676L-295.292 311.915L-292.734 310.191C-291.042 309.029 -289.272 307.905 -287.54 306.781C-280.576 302.321 -273.414 298.124 -266.135 294.114C-251.537 286.207 -236.506 279.011 -221.082 272.603C-205.697 266.194 -189.958 260.536 -174.022 255.476L-168.042 253.565L-162.021 251.804L-156.001 250.042C-154.978 249.743 -153.994 249.443 -152.971 249.18L-149.942 248.393L-137.783 245.171L-125.546 242.247L-122.477 241.498C-121.454 241.236 -120.431 241.048 -119.408 240.823L-113.27 239.512C-109.178 238.65 -105.085 237.713 -100.954 237.001L-88.5989 234.677C-87.5758 234.49 -86.5528 234.303 -85.4904 234.153L-82.382 233.665L-76.165 232.654L-69.9481 231.642C-68.9251 231.454 -67.8627 231.342 -66.8397 231.192L-63.7312 230.78L-51.258 229.093L-49.6841 228.869L-48.1102 228.681L-44.9624 228.344L-38.7061 227.669L-32.4498 226.995C-31.3875 226.882 -30.3644 226.77 -29.302 226.657L-26.1542 226.395L-13.6023 225.308C-9.43146 224.896 -5.22127 224.709 -1.05048 224.446L11.5408 223.697C15.751 223.509 19.9218 223.397 24.132 223.247L30.4276 223.022C32.5131 222.947 34.6378 222.872 36.7233 222.872L49.3145 222.76C57.6955 222.61 66.1159 222.872 74.4969 222.985C108.061 223.734 141.545 226.732 174.755 231.342L180.972 232.204L187.189 233.178L199.622 235.015C203.754 235.727 207.885 236.476 212.017 237.188L218.195 238.275C220.241 238.65 222.287 239.099 224.372 239.512L236.688 241.985L248.964 244.721C251.01 245.171 253.056 245.62 255.103 246.107L261.201 247.606L267.3 249.105C269.346 249.593 271.353 250.08 273.399 250.642L285.518 253.865C287.564 254.39 289.532 254.989 291.578 255.551L297.598 257.313C299.605 257.912 301.611 258.474 303.618 259.074L309.599 260.91L315.58 262.784C317.587 263.384 319.554 264.058 321.561 264.695C325.535 266.007 329.509 267.281 333.444 268.63L345.287 272.753C349.222 274.177 353.117 275.638 357.052 277.062C359.02 277.775 360.948 278.562 362.915 279.311L368.738 281.56L371.65 282.684L374.562 283.846L380.346 286.207C381.29 286.619 382.274 286.994 383.218 287.406L386.091 288.642L391.835 291.078C393.763 291.865 395.652 292.727 397.541 293.589L403.246 296.1L408.912 298.686C410.801 299.548 412.69 300.41 414.578 301.309C422.094 304.832 429.53 308.542 436.928 312.365C444.286 316.225 451.565 320.16 458.648 324.469L458.53 324.694Z" fill="#E9E9E9"></path></g><path d="M438.267 325.673C434.411 324.061 430.516 322.562 426.62 321.063L420.757 318.852L414.855 316.716C406.986 313.905 399.037 311.244 391.089 308.584C375.153 303.375 359.1 298.615 342.928 294.155L336.868 292.469L330.769 290.858L324.67 289.246L318.572 287.71C310.427 285.611 302.282 283.7 294.097 281.788C277.729 278.003 261.281 274.631 244.795 271.483L232.4 269.159L219.966 267.023C217.881 266.686 215.835 266.311 213.75 265.974L207.533 264.999C203.362 264.362 199.23 263.688 195.059 263.051C186.718 261.889 178.415 260.615 170.074 259.64L163.817 258.853L160.67 258.478C159.607 258.329 158.584 258.216 157.522 258.104L144.97 256.792C142.884 256.567 140.799 256.342 138.674 256.155L132.379 255.63L119.787 254.581L107.196 253.756C102.986 253.494 98.815 253.194 94.605 253.007L81.9744 252.407C77.7642 252.183 73.554 252.145 69.3438 252.033L56.7133 251.733L44.0826 251.658C-23.2411 251.508 -90.6436 256.642 -156.826 268.26C-173.392 271.145 -189.839 274.406 -206.208 278.153C-222.576 281.863 -238.827 286.023 -254.92 290.708C-271.013 295.392 -286.988 300.451 -302.688 306.223L-308.551 308.396C-310.518 309.146 -312.446 309.895 -314.413 310.645C-316.381 311.394 -318.309 312.144 -320.237 312.931L-323.149 314.093L-326.06 315.292C-327.988 316.079 -329.916 316.903 -331.844 317.728L-334.717 318.964L-337.589 320.239C-341.406 321.963 -345.183 323.724 -348.882 325.598L-349 325.41C-341.642 321.475 -334.048 317.99 -326.375 314.655C-318.702 311.319 -310.951 308.171 -303.121 305.211C-301.153 304.461 -299.186 303.749 -297.219 303.037C-295.251 302.325 -293.284 301.576 -291.316 300.901C-287.342 299.515 -283.408 298.09 -279.433 296.779L-273.453 294.793C-271.446 294.155 -269.439 293.518 -267.472 292.881L-261.452 290.97L-255.431 289.171C-223.245 279.615 -190.429 271.932 -157.259 266.124C-140.694 263.163 -124.01 260.764 -107.288 258.666L-94.7357 257.204C-92.6503 256.942 -90.5649 256.755 -88.4401 256.53L-82.1445 255.893L-75.8489 255.256L-72.701 254.956L-69.5533 254.693L-56.962 253.682C-52.7518 253.307 -48.5416 253.082 -44.3315 252.82L-31.7009 252.033L-19.0703 251.47L-12.7353 251.208C-11.6729 251.171 -10.6499 251.096 -9.58749 251.096L-6.4397 251.021L6.19089 250.721L12.5258 250.571L18.8608 250.534L31.4914 250.496H34.6392C35.7016 250.496 36.764 250.534 37.787 250.534L44.122 250.646L56.7526 250.833L69.3831 251.246C77.8036 251.47 86.2239 251.958 94.644 252.37C98.854 252.557 103.065 252.857 107.236 253.157L119.827 254.019L132.418 255.068L138.714 255.593C140.799 255.78 142.884 256.005 145.009 256.192L157.561 257.429C161.732 257.841 165.942 258.366 170.113 258.853C178.494 259.753 186.836 260.914 195.177 261.964C196.24 262.076 197.263 262.226 198.286 262.376L201.394 262.826L207.651 263.725L213.907 264.624C215.992 264.924 218.078 265.299 220.124 265.599L232.676 267.623L245.11 269.834C278.24 275.867 311.017 283.512 343.361 292.619C359.532 297.191 375.547 302.175 391.443 307.572C399.392 310.27 407.261 313.081 415.091 316.041C422.921 319.002 430.712 322.075 438.346 325.448L438.267 325.673Z" fill="white"></path></g></g><defs><clipPath id="clip0_766_204"><rect width="634" height="279" fill="white"></rect></clipPath></defs></svg>